<svg width="119" height="134" viewBox="0 0 119 134" fill="none" xmlns="http://www.w3.org/2000/svg">
<path fill-rule="evenodd" clip-rule="evenodd" d="M52.6659 131.856C52.7087 133.051 53.7167 134 54.9441 134H55.0138C56.268 133.962 57.2593 132.938 57.2164 131.716C56.927 124.872 55.5979 118.108 53.2717 111.638C57.3988 111.938 61.542 111.938 65.6691 111.638C63.359 118.113 62.0456 124.882 61.7669 131.732C61.7348 132.954 62.7317 133.968 63.9859 134C65.2455 134.032 66.2853 133.062 66.3175 131.84C66.5801 125.44 67.8129 119.11 69.9729 113.059C70.7876 110.743 69.512 108.224 67.1376 107.436C66.5695 107.249 65.9745 107.174 65.3795 107.211C61.4668 107.49 57.5436 107.49 53.6309 107.211C51.1279 107.045 48.957 108.894 48.7909 111.333C48.748 111.922 48.8284 112.512 49.0267 113.069C51.1707 119.126 52.3979 125.456 52.6659 131.856Z" fill="#01457A"/>
<path fill-rule="evenodd" clip-rule="evenodd" d="M117.869 8.8613C117.097 7.993 115.853 7.99827 115.092 8.87193C111.673 13.1438 109.111 18.2036 107.588 23.7135C104.651 19.8008 101.296 16.3222 97.5975 13.3528C102.748 11.4875 107.396 8.1537 111.089 3.67284C111.78 2.72414 111.667 1.31447 110.837 0.526564C110.006 -0.250619 108.779 -0.132604 108.082 0.794656C105.23 4.64841 100.283 7.82677 93.4062 10.2602C83.1206 3.46383 71.4202 -0.0790597 59.5213 0.00133849C47.6223 -0.0736998 35.927 3.4691 25.6468 10.2708C18.7593 7.83204 13.8068 4.65377 10.95 0.794656C10.2478 -0.143323 9.00972 -0.250631 8.1843 0.547991C7.36424 1.34125 7.25701 2.7295 7.94843 3.67284C11.6468 8.15906 16.2989 11.4929 21.4551 13.3582C17.7568 16.3329 14.3963 19.8221 11.4538 23.7402C9.93155 18.2249 7.36952 13.1491 3.94455 8.87193C3.20489 7.97148 1.96137 7.92326 1.16811 8.7594C0.374844 9.6009 0.326702 11.0105 1.06637 11.9163C1.09317 11.9485 1.12528 11.9807 1.15208 12.0128C4.70032 16.6116 7.23532 22.0947 8.55921 28.0174C3.47804 36.1376 0.69639 45.823 0.583832 55.7817C0.476635 73.3514 10.8857 90.7762 29.1361 103.586C37.9209 109.981 43.8864 120.32 45.5373 132.021C45.6606 133.243 46.6361 134.122 47.7134 133.982C48.7908 133.843 49.5624 132.739 49.4391 131.511C49.4337 131.458 49.4285 131.404 49.4178 131.351C47.5794 118.364 40.9543 106.888 31.1993 99.7917C23.1327 94.1263 4.3788 78.5021 4.5128 55.8137C4.68431 27.5029 29.3612 4.46616 59.5213 4.46616C89.7188 4.46616 114.396 27.4975 114.53 55.8137C114.637 77.6392 97.8656 92.7326 87.8533 99.7809C78.1037 106.877 71.4735 118.353 69.6244 131.334C69.4582 132.557 70.198 133.693 71.2646 133.88C71.3665 133.897 71.4681 133.907 71.5646 133.907C72.5348 133.902 73.3602 133.098 73.5049 132.01C75.1718 120.309 81.1429 109.97 89.9277 103.576C100.631 96.0344 118.576 79.7885 118.458 55.7977C118.362 45.823 115.58 36.1269 110.488 27.996C111.812 22.084 114.347 16.6062 117.89 12.0128C118.651 11.1392 118.641 9.72424 117.869 8.8613Z" fill="#01457A"/>
<path fill-rule="evenodd" clip-rule="evenodd" d="M107.739 56.2802C107.739 31.1584 86.1061 10.7212 59.4997 10.7212C32.8932 10.7212 11.2607 31.1584 11.2607 56.2802C11.2607 81.4019 32.8986 101.839 59.4997 101.839C86.1008 101.839 107.739 81.4019 107.739 56.2802ZM103.842 56.2802C103.826 61.8437 102.631 67.3162 100.358 72.2044C88.1267 73.3622 75.9814 68.9938 66.4194 59.9999C77.6483 52.748 90.2332 48.8461 103.065 48.6424C103.579 51.1455 103.837 53.7074 103.842 56.2802ZM59.4997 15.2771C79.3795 15.2771 96.2524 27.444 101.859 44.1508C88.2287 44.526 74.9041 48.9317 63.1231 56.9662C50.195 45.9838 39.4644 41.0153 17.5157 43.1163C23.4544 26.9509 40.0272 15.2771 59.4997 15.2771ZM15.1573 56.2802C15.1627 53.4341 15.4789 50.5987 16.106 47.8491C38.7462 45.346 48.6351 50.0842 61.7347 61.4204C71.2646 71.3576 83.5655 76.8888 96.3381 76.9692C96.8204 76.9692 97.3135 76.9425 97.7906 76.9264C90.083 89.0826 75.8098 97.2832 59.4997 97.2832C35.0533 97.2832 15.1573 78.8882 15.1573 56.2802Z" fill="#01457A"/>
<path fill-rule="evenodd" clip-rule="evenodd" d="M32.7003 77.7185C32.7003 79.1978 31.4997 80.3985 30.0204 80.3985C28.5411 80.3985 27.3405 79.1978 27.3405 77.7185C27.3405 76.2392 28.5411 75.0386 30.0204 75.0386C31.4997 75.0386 32.7003 76.2392 32.7003 77.7185Z" fill="#01457A"/>
<path fill-rule="evenodd" clip-rule="evenodd" d="M21.6162 55.9784C21.6162 54.6653 20.4959 53.5986 19.1185 53.5986C17.7356 53.5986 16.6207 54.6653 16.6207 55.9784C16.6797 62.4532 18.8396 68.7564 22.7952 74.0252C23.5885 75.0971 25.1431 75.3598 26.274 74.6094C27.4049 73.8537 27.6782 72.3689 26.8903 71.2916C23.4975 66.8375 21.6537 61.483 21.6162 55.9784Z" fill="#01457A"/>
</svg>
