<svg width="1211" height="389" viewBox="0 0 1211 389" fill="none" xmlns="http://www.w3.org/2000/svg">
<line x1="149" y1="15.5" x2="1211" y2="15.5" stroke="#CECECE"/>
<line x1="149" y1="71.5" x2="1211" y2="71.5" stroke="#CECECE"/>
<line x1="149" y1="127.5" x2="1211" y2="127.5" stroke="#CECECE"/>
<line x1="149" y1="183.5" x2="1211" y2="183.5" stroke="#CECECE"/>
<line x1="149" y1="239.5" x2="1211" y2="239.5" stroke="#CECECE"/>
<line x1="149" y1="295.5" x2="1211" y2="295.5" stroke="#CECECE"/>
<line x1="149" y1="353.5" x2="1211" y2="353.5" stroke="#CECECE"/>
<path d="M7.56 368.162C7.56 368.788 7.62666 369.395 7.76 369.982C7.89333 370.568 8.07333 371.115 8.3 371.622L7.3 372.082C7.06 371.535 6.87333 370.922 6.74 370.242C6.59333 369.562 6.52 368.862 6.52 368.142C6.52 366.675 6.81333 365.455 7.4 364.482C7.98666 363.508 8.82 362.782 9.9 362.302C10.9667 361.822 12.2267 361.582 13.68 361.582C15.2 361.582 16.5267 361.842 17.66 362.362C18.78 362.882 19.6533 363.648 20.28 364.662C20.8933 365.662 21.2 366.902 21.2 368.382C21.2 369.195 21.1467 369.895 21.04 370.482C20.9467 371.068 20.8067 371.615 20.62 372.122L19.58 372.122C19.74 371.602 19.88 371.048 20 370.462C20.1067 369.875 20.16 369.228 20.16 368.522C20.16 366.682 19.62 365.282 18.54 364.322C17.4467 363.348 15.96 362.842 14.08 362.802L14.08 370.282L13.04 370.282L13.04 362.802C11.3333 362.895 9.99333 363.395 9.02 364.302C8.04666 365.208 7.56 366.495 7.56 368.162ZM10.36 350L21 350L21 351.14L11.36 351.14L11.36 357.44L21 357.44L21 358.58L10.36 358.58L10.36 350ZM17.76 345.351C18.0533 345.351 18.3867 345.364 18.76 345.391C19.1333 345.404 19.4667 345.418 19.76 345.431L10.36 339.211L10.36 337.811L21 337.811L21 338.891L13.58 338.891C13.2867 338.891 12.9533 338.891 12.58 338.891C12.1933 338.878 11.86 338.858 11.58 338.831L21 345.071L21 346.451L10.36 346.451L10.36 345.351L17.76 345.351ZM10.36 326.863L20 326.863L20 325.423L24.62 325.423L24.62 326.523L21 326.523L21 334.523L24.62 334.523L24.62 335.623L20 335.623L20 334.883C18.76 333.99 17.3133 333.31 15.66 332.843C14.0067 332.377 12.24 332.13 10.36 332.103L10.36 326.863ZM11.3 331.083C12.98 331.163 14.5733 331.423 16.08 331.863C17.5733 332.29 18.88 332.883 20 333.643L20 327.983L11.3 327.983L11.3 331.083ZM10.16 319.169C10.16 318.262 10.3733 317.509 10.8 316.909C11.2133 316.295 11.7867 315.835 12.52 315.529C13.2533 315.209 14.0933 315.049 15.04 315.049L15.82 315.049L15.82 322.649C17.2333 322.649 18.32 322.322 19.08 321.669C19.8267 321.002 20.2 320.055 20.2 318.829C20.2 318.175 20.1467 317.602 20.04 317.109C19.92 316.615 19.7333 316.075 19.48 315.489L20.52 315.489C20.76 316.022 20.9333 316.549 21.04 317.069C21.1467 317.589 21.2 318.189 21.2 318.869C21.2 320.469 20.7133 321.695 19.74 322.549C18.7667 323.402 17.44 323.829 15.76 323.829C14.68 323.829 13.72 323.649 12.88 323.289C12.04 322.915 11.38 322.382 10.9 321.689C10.4067 320.995 10.16 320.155 10.16 319.169ZM11.12 319.189C11.12 320.162 11.4467 320.955 12.1 321.569C12.7533 322.169 13.68 322.515 14.88 322.609L14.88 316.229C13.76 316.229 12.8533 316.475 12.16 316.969C11.4667 317.449 11.12 318.189 11.12 319.189ZM10.36 301.614L21 301.614L21 302.654L13.52 302.654C13 302.654 12.44 302.634 11.84 302.594L11.84 302.654L21 306.434L21 307.414L11.82 311.154L11.82 311.194C12.1267 311.18 12.42 311.174 12.7 311.174C12.9667 311.16 13.26 311.154 13.58 311.154L21 311.154L21 312.214L10.36 312.214L10.36 310.654L19.58 306.914L10.36 303.134L10.36 301.614ZM17.76 297.285C18.0533 297.285 18.3867 297.298 18.76 297.325C19.1333 297.338 19.4667 297.351 19.76 297.365L10.36 291.145L10.36 289.745L21 289.745L21 290.825L13.58 290.825C13.2867 290.825 12.9533 290.825 12.58 290.825C12.1933 290.811 11.86 290.791 11.58 290.765L21 297.005L21 298.385L10.36 298.385L10.36 297.285L17.76 297.285ZM15.66 277.297C16.78 277.297 17.7533 277.484 18.58 277.857C19.4067 278.217 20.0533 278.757 20.52 279.477C20.9733 280.184 21.2 281.05 21.2 282.077C21.2 283.064 20.9733 283.91 20.52 284.617C20.0667 285.324 19.4267 285.87 18.6 286.257C17.76 286.63 16.78 286.817 15.66 286.817C13.94 286.817 12.5933 286.39 11.62 285.537C10.6467 284.684 10.16 283.504 10.16 281.997C10.16 280.984 10.3933 280.13 10.86 279.437C11.3133 278.73 11.9533 278.197 12.78 277.837C13.6067 277.477 14.5667 277.297 15.66 277.297ZM15.66 285.637C17.0333 285.637 18.14 285.35 18.98 284.777C19.8067 284.19 20.22 283.284 20.22 282.057C20.22 280.817 19.8 279.91 18.96 279.337C18.12 278.764 17.02 278.477 15.66 278.477C14.78 278.477 14 278.597 13.32 278.837C12.64 279.077 12.1067 279.457 11.72 279.977C11.3333 280.497 11.14 281.177 11.14 282.017C11.14 283.217 11.54 284.124 12.34 284.737C13.14 285.337 14.2467 285.637 15.66 285.637ZM21 266.88L21 268.04L11.34 268.04L11.34 271.64C13.58 271.8 15.42 272.013 16.86 272.28C18.3 272.547 19.3667 272.92 20.06 273.4C20.7533 273.867 21.1 274.487 21.1 275.26C21.1 275.593 21.0667 275.853 21 276.04L20.1 276.04C20.14 275.907 20.16 275.707 20.16 275.44C20.16 274.627 19.3667 274.013 17.78 273.6C16.1933 273.187 13.72 272.867 10.36 272.64L10.36 266.88L21 266.88ZM15.66 254.465C16.78 254.465 17.7533 254.652 18.58 255.025C19.4067 255.385 20.0533 255.925 20.52 256.645C20.9733 257.352 21.2 258.218 21.2 259.245C21.2 260.232 20.9733 261.078 20.52 261.785C20.0667 262.492 19.4267 263.038 18.6 263.425C17.76 263.798 16.78 263.985 15.66 263.985C13.94 263.985 12.5933 263.558 11.62 262.705C10.6467 261.852 10.16 260.672 10.16 259.165C10.16 258.152 10.3933 257.298 10.86 256.605C11.3133 255.898 11.9533 255.365 12.78 255.005C13.6067 254.645 14.5667 254.465 15.66 254.465ZM15.66 262.805C17.0333 262.805 18.14 262.518 18.98 261.945C19.8067 261.358 20.22 260.452 20.22 259.225C20.22 257.985 19.8 257.078 18.96 256.505C18.12 255.932 17.02 255.645 15.66 255.645C14.78 255.645 14 255.765 13.32 256.005C12.64 256.245 12.1067 256.625 11.72 257.145C11.3333 257.665 11.14 258.345 11.14 259.185C11.14 260.385 11.54 261.292 12.34 261.905C13.14 262.505 14.2467 262.805 15.66 262.805ZM10.36 245.268L11.34 245.268L11.34 250.428L21 250.428L21 251.568L10.36 251.568L10.36 245.268ZM17.76 241.992C18.0533 241.992 18.3867 242.005 18.76 242.032C19.1333 242.045 19.4667 242.058 19.76 242.072L10.36 235.852L10.36 234.452L21 234.452L21 235.532L13.58 235.532C13.2867 235.532 12.9533 235.532 12.58 235.532C12.1933 235.518 11.86 235.498 11.58 235.472L21 241.712L21 243.092L10.36 243.092L10.36 241.992L17.76 241.992ZM13.98 229.944C14.8333 229.944 15.4533 229.731 15.84 229.304C16.2133 228.877 16.4 228.257 16.4 227.444C16.4 226.724 16.2933 226.077 16.08 225.504C15.8533 224.931 15.5467 224.371 15.16 223.824L10.36 223.824L10.36 222.684L21 222.684L21 223.824L16.12 223.824C16.52 224.411 16.8333 224.997 17.06 225.584C17.2733 226.171 17.38 226.857 17.38 227.644C17.38 228.764 17.0933 229.617 16.52 230.204C15.9333 230.791 15.1267 231.084 14.1 231.084L10.36 231.084L10.36 229.944L13.98 229.944ZM10.16 215.126C10.16 214.219 10.3733 213.466 10.8 212.866C11.2133 212.252 11.7867 211.792 12.52 211.486C13.2533 211.166 14.0933 211.006 15.04 211.006L15.82 211.006L15.82 218.606C17.2333 218.606 18.32 218.279 19.08 217.626C19.8267 216.959 20.2 216.012 20.2 214.786C20.2 214.132 20.1467 213.559 20.04 213.066C19.92 212.572 19.7333 212.032 19.48 211.446L20.52 211.446C20.76 211.979 20.9333 212.506 21.04 213.026C21.1467 213.546 21.2 214.146 21.2 214.826C21.2 216.426 20.7133 217.652 19.74 218.506C18.7667 219.359 17.44 219.786 15.76 219.786C14.68 219.786 13.72 219.606 12.88 219.246C12.04 218.872 11.38 218.339 10.9 217.646C10.4067 216.952 10.16 216.112 10.16 215.126ZM11.12 215.146C11.12 216.119 11.4467 216.912 12.1 217.526C12.7533 218.126 13.68 218.472 14.88 218.566L14.88 212.186C13.76 212.186 12.8533 212.432 12.16 212.926C11.4667 213.406 11.12 214.146 11.12 215.146ZM21.2 203.871C21.2 205.431 20.72 206.637 19.76 207.491C18.8 208.331 17.46 208.751 15.74 208.751C14.54 208.751 13.5267 208.537 12.7 208.111C11.8733 207.684 11.2467 207.091 10.82 206.331C10.38 205.557 10.16 204.657 10.16 203.631C10.16 203.124 10.2067 202.644 10.3 202.191C10.3933 201.737 10.52 201.337 10.68 200.991L11.66 201.311C11.5133 201.671 11.4 202.057 11.32 202.471C11.2267 202.884 11.18 203.277 11.18 203.651C11.18 204.917 11.5867 205.891 12.4 206.571C13.2133 207.237 14.32 207.571 15.72 207.571C17.0533 207.571 18.1333 207.271 18.96 206.671C19.7733 206.071 20.18 205.137 20.18 203.871C20.18 203.351 20.1267 202.857 20.02 202.391C19.9133 201.924 19.78 201.504 19.62 201.131L20.64 201.131C20.8133 201.477 20.9467 201.877 21.04 202.331C21.1467 202.771 21.2 203.284 21.2 203.871ZM10.36 192.719L10.36 191.419L15.52 196.179L21 191.119L21 192.499L15.6 197.479L21 197.479L21 198.619L10.36 198.619L10.36 197.479L15.52 197.479L10.36 192.719ZM15.66 180.656C16.78 180.656 17.7533 180.843 18.58 181.216C19.4067 181.576 20.0533 182.116 20.52 182.836C20.9733 183.543 21.2 184.41 21.2 185.436C21.2 186.423 20.9733 187.27 20.52 187.976C20.0667 188.683 19.4267 189.23 18.6 189.616C17.76 189.99 16.78 190.176 15.66 190.176C13.94 190.176 12.5933 189.75 11.62 188.896C10.6467 188.043 10.16 186.863 10.16 185.356C10.16 184.343 10.3933 183.49 10.86 182.796C11.3133 182.09 11.9533 181.556 12.78 181.196C13.6067 180.836 14.5667 180.656 15.66 180.656ZM15.66 188.996C17.0333 188.996 18.14 188.71 18.98 188.136C19.8067 187.55 20.22 186.643 20.22 185.416C20.22 184.176 19.8 183.27 18.96 182.696C18.12 182.123 17.02 181.836 15.66 181.836C14.78 181.836 14 181.956 13.32 182.196C12.64 182.436 12.1067 182.816 11.72 183.336C11.3333 183.856 11.14 184.536 11.14 185.376C11.14 186.576 11.54 187.483 12.34 188.096C13.14 188.696 14.2467 188.996 15.66 188.996ZM10.16 173.72C10.16 172.813 10.3733 172.06 10.8 171.46C11.2133 170.846 11.7867 170.386 12.52 170.08C13.2533 169.76 14.0933 169.6 15.04 169.6L15.82 169.6L15.82 177.2C17.2333 177.2 18.32 176.873 19.08 176.22C19.8267 175.553 20.2 174.606 20.2 173.38C20.2 172.726 20.1467 172.153 20.04 171.66C19.92 171.166 19.7333 170.626 19.48 170.04L20.52 170.04C20.76 170.573 20.9333 171.1 21.04 171.62C21.1467 172.14 21.2 172.74 21.2 173.42C21.2 175.02 20.7133 176.246 19.74 177.1C18.7667 177.953 17.44 178.38 15.76 178.38C14.68 178.38 13.72 178.2 12.88 177.84C12.04 177.466 11.38 176.933 10.9 176.24C10.4067 175.546 10.16 174.706 10.16 173.72ZM11.12 173.74C11.12 174.713 11.4467 175.506 12.1 176.12C12.7533 176.72 13.68 177.066 14.88 177.16L14.88 170.78C13.76 170.78 12.8533 171.026 12.16 171.52C11.4667 172 11.12 172.74 11.12 173.74ZM10.16 156.749C10.16 155.389 10.62 154.329 11.54 153.569C12.46 152.809 13.82 152.429 15.62 152.429C17.42 152.429 18.8 152.829 19.76 153.629C20.72 154.416 21.2 155.496 21.2 156.869C21.2 157.802 21 158.556 20.6 159.129C20.2 159.702 19.72 160.122 19.16 160.389L19.16 160.469C19.4933 160.442 19.86 160.422 20.26 160.409C20.6467 160.396 21.0067 160.389 21.34 160.389L25.72 160.389L25.72 161.529L10.36 161.529L10.36 160.589L12.34 160.449L12.34 160.389C11.7667 160.122 11.26 159.696 10.82 159.109C10.38 158.522 10.16 157.736 10.16 156.749ZM11.14 156.909C11.14 158.096 11.5133 158.969 12.26 159.529C13.0067 160.089 14.08 160.376 15.48 160.389L15.68 160.389C17.2 160.389 18.34 160.116 19.1 159.569C19.8467 159.009 20.22 158.149 20.22 156.989C20.22 155.896 19.8133 155.062 19 154.489C18.1733 153.902 17.04 153.609 15.6 153.609C14.1733 153.609 13.0733 153.889 12.3 154.449C11.5267 154.996 11.14 155.816 11.14 156.909ZM10.18 145.796C10.18 144.596 10.4733 143.703 11.06 143.116C11.6467 142.53 12.5733 142.236 13.84 142.236L21 142.236L21 143.096L19.2 143.296L19.2 143.356C19.8 143.743 20.2867 144.216 20.66 144.776C21.02 145.323 21.2 146.09 21.2 147.076C21.2 148.103 20.9467 148.91 20.44 149.496C19.92 150.083 19.18 150.376 18.22 150.376C17.1533 150.376 16.3467 149.943 15.8 149.076C15.24 148.21 14.9267 146.95 14.86 145.296L14.76 143.356L14.02 143.356C12.98 143.356 12.24 143.57 11.8 143.996C11.36 144.41 11.14 145.023 11.14 145.836C11.14 146.383 11.2133 146.91 11.36 147.416C11.5067 147.923 11.7 148.43 11.94 148.936L11.02 149.296C10.78 148.79 10.58 148.243 10.42 147.656C10.26 147.056 10.18 146.436 10.18 145.796ZM15.7 145.156C15.7667 146.516 16.0067 147.53 16.42 148.196C16.82 148.85 17.42 149.176 18.22 149.176C18.8867 149.176 19.3933 148.976 19.74 148.576C20.0733 148.163 20.24 147.596 20.24 146.876C20.24 145.77 19.9267 144.91 19.3 144.296C18.66 143.683 17.78 143.37 16.66 143.356L15.62 143.356L15.7 145.156ZM21.2 134.574C21.2 136.134 20.72 137.34 19.76 138.194C18.8 139.034 17.46 139.454 15.74 139.454C14.54 139.454 13.5267 139.24 12.7 138.814C11.8733 138.387 11.2467 137.794 10.82 137.034C10.38 136.26 10.16 135.36 10.16 134.334C10.16 133.827 10.2067 133.347 10.3 132.894C10.3933 132.44 10.52 132.04 10.68 131.694L11.66 132.014C11.5133 132.374 11.4 132.76 11.32 133.174C11.2267 133.587 11.18 133.98 11.18 134.354C11.18 135.62 11.5867 136.594 12.4 137.274C13.2133 137.94 14.32 138.274 15.72 138.274C17.0533 138.274 18.1333 137.974 18.96 137.374C19.7733 136.774 20.18 135.84 20.18 134.574C20.18 134.054 20.1267 133.56 20.02 133.094C19.9133 132.627 19.78 132.207 19.62 131.834L20.64 131.834C20.8133 132.18 20.9467 132.58 21.04 133.034C21.1467 133.474 21.2 133.987 21.2 134.574ZM10.36 120.742L21 120.742L21 121.882L11.36 121.882L11.36 128.182L21 128.182L21 129.322L10.36 129.322L10.36 120.742ZM10.16 112.413C10.16 111.053 10.62 109.993 11.54 109.233C12.46 108.473 13.82 108.093 15.62 108.093C17.42 108.093 18.8 108.493 19.76 109.293C20.72 110.08 21.2 111.16 21.2 112.533C21.2 113.466 21 114.22 20.6 114.793C20.2 115.366 19.72 115.786 19.16 116.053L19.16 116.133C19.4933 116.106 19.86 116.086 20.26 116.073C20.6467 116.06 21.0067 116.053 21.34 116.053L25.72 116.053L25.72 117.193L10.36 117.193L10.36 116.253L12.34 116.113L12.34 116.053C11.7667 115.786 11.26 115.36 10.82 114.773C10.38 114.186 10.16 113.4 10.16 112.413ZM11.14 112.573C11.14 113.76 11.5133 114.633 12.26 115.193C13.0067 115.753 14.08 116.04 15.48 116.053L15.68 116.053C17.2 116.053 18.34 115.78 19.1 115.233C19.8467 114.673 20.22 113.813 20.22 112.653C20.22 111.56 19.8133 110.726 19 110.153C18.1733 109.566 17.04 109.273 15.6 109.273C14.1733 109.273 13.0733 109.553 12.3 110.113C11.5266 110.66 11.14 111.48 11.14 112.573ZM10.16 101.18C10.16 100.274 10.3733 99.5205 10.8 98.9205C11.2133 98.3071 11.7866 97.8471 12.52 97.5405C13.2533 97.2205 14.0933 97.0605 15.04 97.0605L15.82 97.0605L15.82 104.66C17.2333 104.66 18.32 104.334 19.08 103.68C19.8266 103.014 20.2 102.067 20.2 100.84C20.2 100.187 20.1466 99.6138 20.04 99.1205C19.92 98.6271 19.7333 98.0871 19.48 97.5005L20.52 97.5005C20.76 98.0338 20.9333 98.5605 21.04 99.0805C21.1466 99.6005 21.2 100.2 21.2 100.88C21.2 102.48 20.7133 103.707 19.74 104.56C18.7666 105.414 17.44 105.84 15.76 105.84C14.68 105.84 13.72 105.66 12.88 105.3C12.04 104.927 11.38 104.394 10.9 103.7C10.4066 103.007 10.16 102.167 10.16 101.18ZM11.12 101.2C11.12 102.174 11.4466 102.967 12.1 103.58C12.7533 104.18 13.68 104.527 14.88 104.62L14.88 98.2405C13.76 98.2405 12.8533 98.4871 12.16 98.9805C11.4666 99.4605 11.12 100.2 11.12 101.2ZM10.36 86.7853L20 86.7853L20 85.3453L24.62 85.3453L24.62 86.4453L21 86.4453L21 94.4453L24.62 94.4453L24.62 95.5453L20 95.5453L20 94.8053C18.76 93.912 17.3133 93.232 15.66 92.7653C14.0066 92.2986 12.24 92.052 10.36 92.0253L10.36 86.7853ZM11.3 91.0053C12.98 91.0853 14.5733 91.3453 16.08 91.7853C17.5733 92.212 18.88 92.8053 20 93.5653L20 87.9053L11.3 87.9053L11.3 91.0053ZM10.16 79.0906C10.16 78.184 10.3733 77.4306 10.8 76.8306C11.2133 76.2173 11.7866 75.7573 12.52 75.4506C13.2533 75.1306 14.0933 74.9706 15.04 74.9706L15.82 74.9706L15.82 82.5706C17.2333 82.5706 18.32 82.244 19.08 81.5906C19.8266 80.924 20.2 79.9773 20.2 78.7506C20.2 78.0973 20.1466 77.524 20.04 77.0306C19.92 76.5373 19.7333 75.9973 19.48 75.4106L20.52 75.4106C20.76 75.944 20.9333 76.4706 21.04 76.9906C21.1466 77.5106 21.2 78.1106 21.2 78.7906C21.2 80.3906 20.7133 81.6173 19.74 82.4706C18.7666 83.324 17.44 83.7506 15.76 83.7506C14.68 83.7506 13.72 83.5706 12.88 83.2106C12.04 82.8373 11.38 82.304 10.9 81.6106C10.4066 80.9173 10.16 80.0773 10.16 79.0906ZM11.12 79.1106C11.12 80.084 11.4466 80.8773 12.1 81.4906C12.7533 82.0906 13.68 82.4373 14.88 82.5306L14.88 76.1506C13.76 76.1506 12.8533 76.3973 12.16 76.8906C11.4666 77.3706 11.12 78.1106 11.12 79.1106ZM21 64.5755L21 65.7355L11.34 65.7355L11.34 69.3355C13.58 69.4955 15.42 69.7088 16.86 69.9755C18.3 70.2421 19.3666 70.6155 20.06 71.0955C20.7533 71.5621 21.1 72.1821 21.1 72.9555C21.1 73.2888 21.0666 73.5488 21 73.7355L20.1 73.7355C20.14 73.6021 20.16 73.4021 20.16 73.1355C20.16 72.3221 19.3666 71.7088 17.78 71.2955C16.1933 70.8821 13.72 70.5621 10.36 70.3355L10.36 64.5755L21 64.5755ZM10.16 57.0203C10.16 56.1136 10.3733 55.3603 10.8 54.7603C11.2133 54.147 11.7866 53.687 12.52 53.3803C13.2533 53.0603 14.0933 52.9003 15.04 52.9003L15.82 52.9003L15.82 60.5003C17.2333 60.5003 18.32 60.1736 19.08 59.5203C19.8266 58.8536 20.2 57.907 20.2 56.6803C20.2 56.027 20.1466 55.4536 20.04 54.9603C19.92 54.467 19.7333 53.927 19.48 53.3403L20.52 53.3403C20.76 53.8736 20.9333 54.4003 21.04 54.9203C21.1466 55.4403 21.2 56.0403 21.2 56.7203C21.2 58.3203 20.7133 59.547 19.74 60.4003C18.7666 61.2536 17.44 61.6803 15.76 61.6803C14.68 61.6803 13.72 61.5003 12.88 61.1403C12.04 60.767 11.38 60.2336 10.9 59.5403C10.4066 58.847 10.16 58.007 10.16 57.0203ZM11.12 57.0403C11.12 58.0136 11.4466 58.807 12.1 59.4203C12.7533 60.0203 13.68 60.367 14.88 60.4603L14.88 54.0803C13.76 54.0803 12.8533 54.327 12.16 54.8203C11.4666 55.3003 11.12 56.0403 11.12 57.0403ZM10.36 48.8852L14.98 48.8852L14.98 42.3652L10.36 42.3652L10.36 41.2252L21 41.2252L21 42.3652L15.96 42.3652L15.96 48.8852L21 48.8852L21 50.0252L10.36 50.0252L10.36 48.8852ZM17.76 36.6009C18.0533 36.6009 18.3866 36.6143 18.76 36.6409C19.1333 36.6543 19.4666 36.6676 19.76 36.6809L10.36 30.4609L10.36 29.0609L21 29.0609L21 30.1409L13.58 30.1409C13.2866 30.1409 12.9533 30.1409 12.58 30.1409C12.1933 30.1276 11.86 30.1076 11.58 30.0809L21 36.3209L21 37.7009L10.36 37.7009L10.36 36.6009L17.76 36.6009ZM10.16 21.4734C10.16 20.5668 10.3733 19.8134 10.8 19.2134C11.2133 18.6001 11.7866 18.1401 12.52 17.8334C13.2533 17.5134 14.0933 17.3534 15.04 17.3534L15.82 17.3534L15.82 24.9534C17.2333 24.9534 18.32 24.6268 19.08 23.9734C19.8266 23.3068 20.2 22.3601 20.2 21.1334C20.2 20.4801 20.1466 19.9068 20.04 19.4134C19.92 18.9201 19.7333 18.3801 19.48 17.7934L20.52 17.7934C20.76 18.3268 20.9333 18.8534 21.04 19.3734C21.1466 19.8934 21.2 20.4934 21.2 21.1734C21.2 22.7734 20.7133 24.0001 19.74 24.8534C18.7666 25.7068 17.44 26.1334 15.76 26.1334C14.68 26.1334 13.72 25.9534 12.88 25.5934C12.04 25.2201 11.38 24.6868 10.9 23.9934C10.4066 23.3001 10.16 22.4601 10.16 21.4734ZM11.12 21.4934C11.12 22.4668 11.4466 23.2601 12.1 23.8734C12.7533 24.4734 13.68 24.8201 14.88 24.9134L14.88 18.5334C13.76 18.5334 12.8533 18.7801 12.16 19.2734C11.4666 19.7534 11.12 20.4934 11.12 21.4934ZM48 342.271L48 343.591L41.4 347.731L48 351.931L48 353.191L40.58 348.411L33.72 352.791L33.72 351.491L39.76 347.691L33.72 343.871L33.72 342.611L40.56 347.031L48 342.271ZM40.84 328.545C42.2933 328.545 43.5733 328.785 44.68 329.265C45.7867 329.745 46.6533 330.465 47.28 331.425C47.8933 332.371 48.2 333.551 48.2 334.965C48.2 336.405 47.8933 337.605 47.28 338.565C46.6533 339.511 45.7867 340.225 44.68 340.705C43.56 341.171 42.2733 341.405 40.82 341.405C39.3667 341.405 38.0933 341.165 37 340.685C35.9067 340.191 35.0533 339.465 34.44 338.505C33.8133 337.531 33.5 336.331 33.5 334.905C33.5 333.531 33.8 332.371 34.4 331.425C34.9867 330.478 35.8267 329.765 36.92 329.285C38.0133 328.791 39.32 328.545 40.84 328.545ZM40.82 340.185C42.0867 340.185 43.2 339.998 44.16 339.625C45.1067 339.251 45.8467 338.678 46.38 337.905C46.9 337.131 47.16 336.151 47.16 334.965C47.16 333.765 46.9 332.785 46.38 332.025C45.86 331.251 45.1267 330.685 44.18 330.325C43.22 329.951 42.1067 329.765 40.84 329.765C38.8533 329.765 37.3067 330.198 36.2 331.065C35.0933 331.918 34.54 333.198 34.54 334.905C34.54 336.091 34.8067 337.078 35.34 337.865C35.86 338.651 36.5933 339.238 37.54 339.625C38.4733 339.998 39.5667 340.185 40.82 340.185ZM48 325.293L33.72 325.293L33.72 317.213L34.76 317.213L34.76 324.133L39.94 324.133L39.94 321.573C39.94 319.786 40.2667 318.5 40.92 317.713C41.5733 316.926 42.56 316.533 43.88 316.533C45.2133 316.533 46.2333 316.926 46.94 317.713C47.6467 318.486 48 319.693 48 321.333L48 325.293ZM46.98 321.493C46.98 320.173 46.7333 319.22 46.24 318.633C45.7333 318.033 44.9467 317.733 43.88 317.733C42.76 317.733 42 318.066 41.6 318.733C41.1867 319.4 40.98 320.4 40.98 321.733L40.98 324.133L46.98 324.133L46.98 321.493ZM48 303.58L48 304.74L34.76 304.74L34.76 309.78C35.68 309.887 36.6667 310.007 37.72 310.14C38.7733 310.274 39.82 310.414 40.86 310.56C41.8867 310.707 42.8267 310.867 43.68 311.04C44.5867 311.214 45.3867 311.42 46.08 311.66C46.76 311.9 47.2867 312.22 47.66 312.62C48.0333 313.007 48.22 313.527 48.22 314.18C48.22 314.634 48.1467 315.02 48 315.34L47 315.34C47.0667 315.194 47.12 315.04 47.16 314.88C47.2 314.707 47.22 314.507 47.22 314.28C47.22 313.84 47.0467 313.487 46.7 313.22C46.3533 312.954 45.8933 312.74 45.32 312.58C44.7333 312.407 44.0867 312.254 43.38 312.12C42.5 311.96 41.52 311.8 40.44 311.64C39.3467 311.48 38.2267 311.327 37.08 311.18C35.92 311.034 34.8 310.894 33.72 310.76L33.72 303.58L48 303.58ZM48.2 290.375C48.2 291.935 47.72 293.141 46.76 293.995C45.8 294.835 44.46 295.255 42.74 295.255C41.54 295.255 40.5267 295.041 39.7 294.615C38.8733 294.188 38.2467 293.595 37.82 292.835C37.38 292.061 37.16 291.161 37.16 290.135C37.16 289.628 37.2067 289.148 37.3 288.695C37.3933 288.241 37.52 287.841 37.68 287.495L38.66 287.815C38.5133 288.175 38.4 288.561 38.32 288.975C38.2267 289.388 38.18 289.781 38.18 290.155C38.18 291.421 38.5867 292.395 39.4 293.075C40.2133 293.741 41.32 294.075 42.72 294.075C44.0533 294.075 45.1333 293.775 45.96 293.175C46.7733 292.575 47.18 291.641 47.18 290.375C47.18 289.855 47.1267 289.361 47.02 288.895C46.9133 288.428 46.78 288.008 46.62 287.635L47.64 287.635C47.8133 287.981 47.9467 288.381 48.04 288.835C48.1467 289.275 48.2 289.788 48.2 290.375ZM37.16 280.343C37.16 278.983 37.62 277.923 38.54 277.163C39.46 276.403 40.82 276.023 42.62 276.023C44.42 276.023 45.8 276.423 46.76 277.223C47.72 278.009 48.2 279.089 48.2 280.463C48.2 281.396 48 282.149 47.6 282.723C47.2 283.296 46.72 283.716 46.16 283.983L46.16 284.063C46.4933 284.036 46.86 284.016 47.26 284.003C47.6467 283.989 48.0067 283.983 48.34 283.983L52.72 283.983L52.72 285.123L37.36 285.123L37.36 284.183L39.34 284.043L39.34 283.983C38.7667 283.716 38.26 283.289 37.82 282.703C37.38 282.116 37.16 281.329 37.16 280.343ZM38.14 280.503C38.14 281.689 38.5133 282.563 39.26 283.123C40.0067 283.683 41.08 283.969 42.48 283.983L42.68 283.983C44.2 283.983 45.34 283.709 46.1 283.163C46.8467 282.603 47.22 281.743 47.22 280.583C47.22 279.489 46.8133 278.656 46 278.083C45.1733 277.496 44.04 277.203 42.6 277.203C41.1733 277.203 40.0733 277.483 39.3 278.043C38.5267 278.589 38.14 279.409 38.14 280.503ZM37.16 269.11C37.16 268.203 37.3733 267.45 37.8 266.85C38.2133 266.237 38.7867 265.777 39.52 265.47C40.2533 265.15 41.0933 264.99 42.04 264.99L42.82 264.99L42.82 272.59C44.2333 272.59 45.32 272.263 46.08 271.61C46.8267 270.943 47.2 269.997 47.2 268.77C47.2 268.117 47.1467 267.543 47.04 267.05C46.92 266.557 46.7333 266.017 46.48 265.43L47.52 265.43C47.76 265.963 47.9333 266.49 48.04 267.01C48.1467 267.53 48.2 268.13 48.2 268.81C48.2 270.41 47.7133 271.637 46.74 272.49C45.7667 273.343 44.44 273.77 42.76 273.77C41.68 273.77 40.72 273.59 39.88 273.23C39.04 272.857 38.38 272.323 37.9 271.63C37.4067 270.937 37.16 270.097 37.16 269.11ZM38.12 269.13C38.12 270.103 38.4467 270.897 39.1 271.51C39.7533 272.11 40.68 272.457 41.88 272.55L41.88 266.17C40.76 266.17 39.8533 266.417 39.16 266.91C38.4667 267.39 38.12 268.13 38.12 269.13ZM37.36 254.715L47 254.715L47 253.275L51.62 253.275L51.62 254.375L48 254.375L48 262.375L51.62 262.375L51.62 263.475L47 263.475L47 262.735C45.76 261.842 44.3133 261.162 42.66 260.695C41.0067 260.228 39.24 259.982 37.36 259.955L37.36 254.715ZM38.3 258.935C39.98 259.015 41.5733 259.275 43.08 259.715C44.5733 260.142 45.88 260.735 47 261.495L47 255.835L38.3 255.835L38.3 258.935ZM44.76 249.96C45.0533 249.96 45.3867 249.974 45.76 250C46.1333 250.014 46.4667 250.027 46.76 250.04L37.36 243.82L37.36 242.42L48 242.42L48 243.5L40.58 243.5C40.2867 243.5 39.9533 243.5 39.58 243.5C39.1933 243.487 38.86 243.467 38.58 243.44L48 249.68L48 251.06L37.36 251.06L37.36 249.96L44.76 249.96ZM37.36 223.117L48 223.117L48 224.157L40.52 224.157C40 224.157 39.44 224.137 38.84 224.097L38.84 224.157L48 227.937L48 228.917L38.82 232.657L38.82 232.697C39.1267 232.684 39.42 232.677 39.7 232.677C39.9667 232.664 40.26 232.657 40.58 232.657L48 232.657L48 233.717L37.36 233.717L37.36 232.157L46.58 228.417L37.36 224.637L37.36 223.117ZM37.36 221.628L37.36 220.428L43.96 217.888C44.56 217.675 45.0933 217.488 45.56 217.328C46.0133 217.168 46.42 217.042 46.78 216.948L46.78 216.888C46.1133 216.688 45.1867 216.375 44 215.948L37.36 213.468L37.36 212.248L49.88 217.048C50.8267 217.408 51.5533 217.835 52.06 218.328C52.5667 218.822 52.82 219.488 52.82 220.328C52.82 220.582 52.8067 220.815 52.78 221.028C52.7533 221.228 52.7067 221.415 52.64 221.588L51.68 221.588C51.7333 221.428 51.7733 221.255 51.8 221.068C51.84 220.882 51.86 220.682 51.86 220.468C51.86 219.908 51.6867 219.455 51.34 219.108C50.9933 218.748 50.46 218.428 49.74 218.148L47.96 217.468L37.36 221.628ZM37.36 199.113L42.54 203.693L48 198.753L48 200.113L42.6 204.933L48 204.933L48 206.013L42.6 206.013L48 210.833L48 212.173L42.54 207.233L37.36 211.833L37.36 210.533L42.52 206.013L37.36 206.013L37.36 204.933L42.52 204.933L37.36 200.413L37.36 199.113ZM40.98 196.311C41.8333 196.311 42.4533 196.098 42.84 195.671C43.2133 195.245 43.4 194.625 43.4 193.811C43.4 193.091 43.2933 192.445 43.08 191.871C42.8533 191.298 42.5467 190.738 42.16 190.191L37.36 190.191L37.36 189.051L48 189.051L48 190.191L43.12 190.191C43.52 190.778 43.8333 191.365 44.06 191.951C44.2733 192.538 44.38 193.225 44.38 194.011C44.38 195.131 44.0933 195.985 43.52 196.571C42.9333 197.158 42.1267 197.451 41.1 197.451L37.36 197.451L37.36 196.311L40.98 196.311ZM44.76 184.433C45.0533 184.433 45.3867 184.446 45.76 184.473C46.1333 184.486 46.4667 184.5 46.76 184.513L37.36 178.293L37.36 176.893L48 176.893L48 177.973L40.58 177.973C40.2867 177.973 39.9533 177.973 39.58 177.973C39.1933 177.96 38.86 177.94 38.58 177.913L48 184.153L48 185.533L37.36 185.533L37.36 184.433L44.76 184.433ZM37.36 172.205L41.98 172.205L41.98 165.685L37.36 165.685L37.36 164.545L48 164.545L48 165.685L42.96 165.685L42.96 172.205L48 172.205L48 173.345L37.36 173.345L37.36 172.205ZM44.76 154.726C45.0533 154.726 45.3867 154.739 45.76 154.766C46.1333 154.779 46.4667 154.793 46.76 154.806L37.36 148.586L37.36 147.186L48 147.186L48 148.266L40.58 148.266C40.2867 148.266 39.9533 148.266 39.58 148.266C39.1933 148.253 38.86 148.233 38.58 148.206L48 154.446L48 155.826L37.36 155.826L37.36 154.726L44.76 154.726ZM37.36 127.043L42.54 131.623L48 126.683L48 128.043L42.6 132.863L48 132.863L48 133.943L42.6 133.943L48 138.763L48 140.103L42.54 135.163L37.36 139.763L37.36 138.463L42.52 133.943L37.36 133.943L37.36 132.863L42.52 132.863L37.36 128.343L37.36 127.043ZM37.16 121.161C37.16 120.254 37.3733 119.501 37.8 118.901C38.2133 118.288 38.7867 117.828 39.52 117.521C40.2533 117.201 41.0933 117.041 42.04 117.041L42.82 117.041L42.82 124.641C44.2333 124.641 45.32 124.314 46.08 123.661C46.8267 122.994 47.2 122.048 47.2 120.821C47.2 120.168 47.1467 119.594 47.04 119.101C46.92 118.608 46.7333 118.068 46.48 117.481L47.52 117.481C47.76 118.014 47.9333 118.541 48.04 119.061C48.1467 119.581 48.2 120.181 48.2 120.861C48.2 122.461 47.7133 123.688 46.74 124.541C45.7667 125.394 44.44 125.821 42.76 125.821C41.68 125.821 40.72 125.641 39.88 125.281C39.04 124.908 38.38 124.374 37.9 123.681C37.4067 122.988 37.16 122.148 37.16 121.161ZM38.12 121.181C38.12 122.154 38.4467 122.948 39.1 123.561C39.7533 124.161 40.68 124.508 41.88 124.601L41.88 118.221C40.76 118.221 39.8533 118.468 39.16 118.961C38.4667 119.441 38.12 120.181 38.12 121.181ZM37.36 113.026L41.98 113.026L41.98 106.506L37.36 106.506L37.36 105.366L48 105.366L48 106.506L42.96 106.506L42.96 113.026L48 113.026L48 114.166L37.36 114.166L37.36 113.026ZM37.36 88.1616L47.02 88.1616L47.02 86.7016L51.62 86.7016L51.62 87.8416L48 87.8416L48 101.862L37.36 101.862L37.36 100.722L47 100.722L47 95.5816L37.36 95.5816L37.36 94.4416L47 94.4416L47 89.2816L37.36 89.2816L37.36 88.1616ZM44.76 83.3783C45.0533 83.3783 45.3866 83.3916 45.76 83.4183C46.1333 83.4316 46.4666 83.4449 46.76 83.4583L37.36 77.2383L37.36 75.8383L48 75.8383L48 76.9183L40.58 76.9183C40.2866 76.9183 39.9533 76.9183 39.58 76.9183C39.1933 76.9049 38.86 76.8849 38.58 76.8583L48 83.0983L48 84.4783L37.36 84.4783L37.36 83.3783L44.76 83.3783ZM37.36 71.1508L41.98 71.1508L41.98 64.6308L37.36 64.6308L37.36 63.4908L48 63.4908L48 64.6308L42.96 64.6308L42.96 71.1508L48 71.1508L48 72.2908L37.36 72.2908L37.36 71.1508ZM45.9 58.5466C46.6333 58.7199 47.42 58.9399 48.26 59.2066C49.1 59.4732 49.8733 59.7599 50.58 60.0666L50.58 60.9266C48.8066 60.4466 47.1733 60.0932 45.68 59.8666L45.68 58.6466L45.9 58.5466ZM33.52 48.0995C33.52 47.1529 33.9066 46.4395 34.68 45.9595C35.4533 45.4795 36.5533 45.2395 37.98 45.2395C39.4333 45.2395 40.5466 45.4862 41.32 45.9795C42.0933 46.4595 42.48 47.1729 42.48 48.1195C42.48 49.0395 42.0933 49.7395 41.32 50.2195C40.5333 50.6995 39.42 50.9395 37.98 50.9395C36.54 50.9395 35.44 50.6995 34.68 50.2195C33.9066 49.7395 33.52 49.0329 33.52 48.0995ZM33.72 39.3995L48 47.3195L48 48.3795L33.72 40.4595L33.72 39.3995ZM34.38 48.0995C34.38 49.3262 35.58 49.9395 37.98 49.9395C40.3933 49.9395 41.6 49.3329 41.6 48.1195C41.6 46.8662 40.3933 46.2395 37.98 46.2395C36.8066 46.2395 35.9133 46.3929 35.3 46.6995C34.6866 46.9929 34.38 47.4595 34.38 48.0995ZM39.24 39.7195C39.24 38.7729 39.6266 38.0595 40.4 37.5795C41.1733 37.0995 42.2733 36.8595 43.7 36.8595C45.1533 36.8595 46.2666 37.1062 47.04 37.5995C47.8133 38.0795 48.2 38.7929 48.2 39.7395C48.2 40.6595 47.8133 41.3595 47.04 41.8395C46.2533 42.3195 45.14 42.5595 43.7 42.5595C42.26 42.5595 41.16 42.3195 40.4 41.8395C39.6266 41.3595 39.24 40.6529 39.24 39.7195ZM40.12 39.7195C40.12 40.9462 41.3133 41.5595 43.7 41.5595C46.1133 41.5595 47.32 40.9529 47.32 39.7395C47.32 38.4862 46.1133 37.8595 43.7 37.8595C42.5266 37.8595 41.64 38.0129 41.04 38.3195C40.4266 38.6129 40.12 39.0795 40.12 39.7195Z" fill="#01457A"/>
<path d="M88.24 15.1929C88.24 13.4863 88.4533 12.0063 88.88 10.7529C89.3067 9.48628 89.98 8.50628 90.9 7.81295C91.8333 7.11962 93.0333 6.77295 94.5 6.77295C95.22 6.77295 95.84 6.84628 96.36 6.99295V8.01295C95.84 7.82628 95.2267 7.73295 94.52 7.73295C92.8 7.73295 91.5267 8.31295 90.7 9.47295C89.8733 10.6329 89.4267 12.2796 89.36 14.4129H89.44C89.72 13.9063 90.1667 13.4463 90.78 13.0329C91.4067 12.6196 92.22 12.4129 93.22 12.4129C94.5 12.4129 95.5133 12.7996 96.26 13.5729C97.0067 14.3329 97.38 15.3796 97.38 16.7129C97.38 18.1529 96.9867 19.3063 96.2 20.1729C95.4267 21.0396 94.3533 21.4729 92.98 21.4729C91.9533 21.4729 91.0867 21.2063 90.38 20.6729C89.6733 20.1263 89.14 19.3863 88.78 18.4529C88.42 17.5063 88.24 16.4196 88.24 15.1929ZM92.96 20.4729C93.9867 20.4729 94.7867 20.1529 95.36 19.5129C95.9467 18.8729 96.24 17.9396 96.24 16.7129C96.24 15.6729 95.9733 14.8529 95.44 14.2529C94.9067 13.6529 94.1067 13.3529 93.04 13.3529C92.3067 13.3529 91.6667 13.5063 91.12 13.8129C90.5867 14.1063 90.1733 14.4729 89.88 14.9129C89.5867 15.3529 89.44 15.7863 89.44 16.2129C89.44 16.6396 89.5 17.0996 89.62 17.5929C89.74 18.0729 89.9333 18.5329 90.2 18.9729C90.48 19.4129 90.8467 19.7729 91.3 20.0529C91.7533 20.3329 92.3067 20.4729 92.96 20.4729ZM101.606 19.1729C101.432 19.9063 101.212 20.6929 100.946 21.5329C100.679 22.3729 100.392 23.1463 100.086 23.8529H99.2258C99.7058 22.0796 100.059 20.4463 100.286 18.9529H101.506L101.606 19.1729ZM113.238 14.0929C113.238 16.4663 112.871 18.2929 112.138 19.5729C111.404 20.8396 110.238 21.4729 108.638 21.4729C107.131 21.4729 105.991 20.8463 105.218 19.5929C104.444 18.3396 104.058 16.5063 104.058 14.0929C104.058 12.6263 104.204 11.3463 104.498 10.2529C104.791 9.15962 105.278 8.30628 105.958 7.69295C106.638 7.07962 107.538 6.77295 108.658 6.77295C109.751 6.77295 110.631 7.07295 111.298 7.67295C111.978 8.27295 112.471 9.11961 112.778 10.2129C113.084 11.3063 113.238 12.5996 113.238 14.0929ZM105.198 14.0929C105.198 16.2529 105.471 17.8596 106.018 18.9129C106.578 19.9529 107.451 20.4729 108.638 20.4729C109.864 20.4729 110.744 19.9463 111.278 18.8929C111.811 17.8396 112.078 16.2396 112.078 14.0929C112.078 12.7596 111.971 11.6263 111.758 10.6929C111.558 9.74628 111.204 9.02628 110.698 8.53295C110.204 8.02628 109.524 7.77295 108.658 7.77295C107.791 7.77295 107.104 8.02628 106.598 8.53295C106.104 9.03962 105.744 9.76628 105.518 10.7129C105.304 11.6596 105.198 12.7863 105.198 14.0929Z" fill="#01457A"/>
<rect x="168" y="190" width="18" height="18" fill="#78B3DB"/>
<path d="M204.2 209L199.08 195.94H199.02C199.033 196.313 199.047 196.74 199.06 197.22C199.087 197.687 199.1 198.18 199.1 198.7V209H198V194.72H199.76L204.68 207.22H204.74L209.72 194.72H211.44V209H210.28V198.58C210.28 198.14 210.287 197.693 210.3 197.24C210.327 196.773 210.347 196.347 210.36 195.96H210.3L205.14 209H204.2ZM213.461 198.36H214.661L217.201 204.96C217.415 205.56 217.601 206.093 217.761 206.56C217.921 207.013 218.048 207.42 218.141 207.78H218.201C218.401 207.113 218.715 206.187 219.141 205L221.621 198.36H222.841L218.041 210.88C217.681 211.827 217.255 212.553 216.761 213.06C216.268 213.567 215.601 213.82 214.761 213.82C214.508 213.82 214.275 213.807 214.061 213.78C213.861 213.753 213.675 213.707 213.501 213.64V212.68C213.661 212.733 213.835 212.773 214.021 212.8C214.208 212.84 214.408 212.86 214.621 212.86C215.181 212.86 215.635 212.687 215.981 212.34C216.341 211.993 216.661 211.46 216.941 210.74L217.621 208.96L213.461 198.36ZM235.976 198.36L231.396 203.54L236.336 209H234.976L230.156 203.6V209H229.076V203.6L224.256 209H222.916L227.856 203.54L223.256 198.36H224.556L229.076 203.52V198.36H230.156V203.52L234.676 198.36H235.976ZM238.779 201.98C238.779 202.833 238.992 203.453 239.419 203.84C239.845 204.213 240.465 204.4 241.279 204.4C241.999 204.4 242.645 204.293 243.219 204.08C243.792 203.853 244.352 203.547 244.899 203.16V198.36H246.039V209H244.899V204.12C244.312 204.52 243.725 204.833 243.139 205.06C242.552 205.273 241.865 205.38 241.079 205.38C239.959 205.38 239.105 205.093 238.519 204.52C237.932 203.933 237.639 203.127 237.639 202.1V198.36H238.779V201.98ZM250.657 205.76C250.657 206.053 250.644 206.387 250.617 206.76C250.604 207.133 250.59 207.467 250.577 207.76L256.797 198.36H258.197V209H257.117V201.58C257.117 201.287 257.117 200.953 257.117 200.58C257.13 200.193 257.15 199.86 257.177 199.58L250.937 209H249.557V198.36H250.657V205.76ZM262.884 198.36V202.98H269.404V198.36H270.544V209H269.404V203.96H262.884V209H261.744V198.36H262.884ZM274.069 209V198.36H275.209V202.82H278.669C279.949 202.82 280.889 203.08 281.489 203.6C282.089 204.12 282.389 204.853 282.389 205.8C282.389 206.8 282.075 207.587 281.449 208.16C280.822 208.72 279.835 209 278.489 209H274.069ZM284.089 209V198.36H285.229V209H284.089ZM278.369 208.04C280.289 208.04 281.249 207.307 281.249 205.84C281.249 205.133 281.015 204.62 280.549 204.3C280.095 203.967 279.422 203.8 278.529 203.8H275.209V208.04H278.369Z" fill="#01457A"/>
<rect x="168" y="216" width="18" height="18" fill="#BCD77E"/>
<path d="M202.12 227.68L196.36 220.72H197.7L203.38 227.64V220.72H204.5V227.64L210.2 220.72H211.54L205.76 227.66L211.78 235H210.4L204.5 227.76V235H203.38V227.76L197.48 235H196.12L202.12 227.68ZM217.698 224.16C218.605 224.16 219.358 224.373 219.958 224.8C220.572 225.213 221.032 225.787 221.338 226.52C221.658 227.253 221.818 228.093 221.818 229.04V229.82H214.218C214.218 231.233 214.545 232.32 215.198 233.08C215.865 233.827 216.812 234.2 218.038 234.2C218.692 234.2 219.265 234.147 219.758 234.04C220.252 233.92 220.792 233.733 221.378 233.48V234.52C220.845 234.76 220.318 234.933 219.798 235.04C219.278 235.147 218.678 235.2 217.998 235.2C216.398 235.2 215.172 234.713 214.318 233.74C213.465 232.767 213.038 231.44 213.038 229.76C213.038 228.68 213.218 227.72 213.578 226.88C213.952 226.04 214.485 225.38 215.178 224.9C215.872 224.407 216.712 224.16 217.698 224.16ZM217.678 225.12C216.705 225.12 215.912 225.447 215.298 226.1C214.698 226.753 214.352 227.68 214.258 228.88H220.638C220.638 227.76 220.392 226.853 219.898 226.16C219.418 225.467 218.678 225.12 217.678 225.12ZM225.834 224.36V228.98H232.354V224.36H233.494V235H232.354V229.96H225.834V235H224.694V224.36H225.834ZM250.698 224.36V234.02H252.158V238.62H251.018V235H236.998V224.36H238.138V234H243.278V224.36H244.418V234H249.578V224.36H250.698ZM255.481 231.76C255.481 232.053 255.468 232.387 255.441 232.76C255.428 233.133 255.414 233.467 255.401 233.76L261.621 224.36H263.021V235H261.941V227.58C261.941 227.287 261.941 226.953 261.941 226.58C261.954 226.193 261.974 225.86 262.001 225.58L255.761 235H254.381V224.36H255.481V231.76ZM267.709 224.36V228.98H274.229V224.36H275.369V235H274.229V229.96H267.709V235H266.569V224.36H267.709ZM278.893 235V224.36H280.033V228.82H283.493C284.773 228.82 285.713 229.08 286.313 229.6C286.913 230.12 287.213 230.853 287.213 231.8C287.213 232.8 286.899 233.587 286.273 234.16C285.646 234.72 284.659 235 283.313 235H278.893ZM288.913 235V224.36H290.053V235H288.913ZM283.193 234.04C285.113 234.04 286.073 233.307 286.073 231.84C286.073 231.133 285.839 230.62 285.373 230.3C284.919 229.967 284.246 229.8 283.353 229.8H280.033V234.04H283.193Z" fill="#01457A"/>
<path d="M92.5 68.0304C93.94 68.0304 95.08 68.3971 95.92 69.1304C96.7733 69.8504 97.2 70.8771 97.2 72.2104C97.2 73.6637 96.7333 74.8037 95.8 75.6304C94.8667 76.4571 93.6067 76.8704 92.02 76.8704C91.26 76.8704 90.5667 76.7971 89.94 76.6504C89.3267 76.5037 88.8067 76.3037 88.38 76.0504V74.9304C88.8333 75.2104 89.38 75.4371 90.02 75.6104C90.6733 75.7837 91.34 75.8704 92.02 75.8704C93.22 75.8704 94.1867 75.5704 94.92 74.9704C95.6667 74.3571 96.04 73.4704 96.04 72.3104C96.04 71.2704 95.72 70.4637 95.08 69.8904C94.4533 69.3037 93.4933 69.0104 92.2 69.0104C91.7067 69.0104 91.2133 69.0504 90.72 69.1304C90.24 69.2104 89.8067 69.2971 89.42 69.3904L88.78 68.9704L89.36 62.3904H96.28V63.4304H90.34L89.92 68.3304C90.2 68.2771 90.5533 68.2171 90.98 68.1504C91.4067 68.0704 91.9133 68.0304 92.5 68.0304ZM101.606 74.5704C101.432 75.3037 101.212 76.0904 100.946 76.9304C100.679 77.7704 100.392 78.5437 100.086 79.2504H99.2258C99.7058 77.4771 100.059 75.8437 100.286 74.3504H101.506L101.606 74.5704ZM113.238 69.4904C113.238 71.8637 112.871 73.6904 112.138 74.9704C111.404 76.2371 110.238 76.8704 108.638 76.8704C107.131 76.8704 105.991 76.2437 105.218 74.9904C104.444 73.7371 104.058 71.9037 104.058 69.4904C104.058 68.0237 104.204 66.7437 104.498 65.6504C104.791 64.5571 105.278 63.7037 105.958 63.0904C106.638 62.4771 107.538 62.1704 108.658 62.1704C109.751 62.1704 110.631 62.4704 111.298 63.0704C111.978 63.6704 112.471 64.5171 112.778 65.6104C113.084 66.7037 113.238 67.9971 113.238 69.4904ZM105.198 69.4904C105.198 71.6504 105.471 73.2571 106.018 74.3104C106.578 75.3504 107.451 75.8704 108.638 75.8704C109.864 75.8704 110.744 75.3437 111.278 74.2904C111.811 73.2371 112.078 71.6371 112.078 69.4904C112.078 68.1571 111.971 67.0237 111.758 66.0904C111.558 65.1437 111.204 64.4237 110.698 63.9304C110.204 63.4237 109.524 63.1704 108.658 63.1704C107.791 63.1704 107.104 63.4237 106.598 63.9304C106.104 64.4371 105.744 65.1637 105.518 66.1104C105.304 67.0571 105.198 68.1837 105.198 69.4904Z" fill="#01457A"/>
<path d="M98.12 128.508H95.74V132.068H94.64V128.508H87.46V127.568L94.56 117.708H95.74V127.468H98.12V128.508ZM94.64 122.168C94.64 121.648 94.64 121.208 94.64 120.848C94.64 120.488 94.6467 120.168 94.66 119.888C94.6733 119.595 94.6867 119.288 94.7 118.968H94.64C94.4667 119.275 94.3 119.562 94.14 119.828C93.98 120.095 93.7867 120.382 93.56 120.688L88.68 127.468H94.64V122.168ZM101.606 129.968C101.432 130.702 101.212 131.488 100.946 132.328C100.679 133.168 100.392 133.942 100.086 134.648H99.2258C99.7058 132.875 100.059 131.242 100.286 129.748H101.506L101.606 129.968ZM113.238 124.888C113.238 127.262 112.871 129.088 112.138 130.368C111.404 131.635 110.238 132.268 108.638 132.268C107.131 132.268 105.991 131.642 105.218 130.388C104.444 129.135 104.058 127.302 104.058 124.888C104.058 123.422 104.204 122.142 104.498 121.048C104.791 119.955 105.278 119.102 105.958 118.488C106.638 117.875 107.538 117.568 108.658 117.568C109.751 117.568 110.631 117.868 111.298 118.468C111.978 119.068 112.471 119.915 112.778 121.008C113.084 122.102 113.238 123.395 113.238 124.888ZM105.198 124.888C105.198 127.048 105.471 128.655 106.018 129.708C106.578 130.748 107.451 131.268 108.638 131.268C109.864 131.268 110.744 130.742 111.278 129.688C111.811 128.635 112.078 127.035 112.078 124.888C112.078 123.555 111.971 122.422 111.758 121.488C111.558 120.542 111.204 119.822 110.698 119.328C110.204 118.822 109.524 118.568 108.658 118.568C107.791 118.568 107.104 118.822 106.598 119.328C106.104 119.835 105.744 120.562 105.518 121.508C105.304 122.455 105.198 123.582 105.198 124.888Z" fill="#01457A"/>
<path d="M96.64 176.486C96.64 177.432 96.36 178.206 95.8 178.806C95.24 179.406 94.52 179.786 93.64 179.946V180.006C95.9333 180.312 97.08 181.472 97.08 183.486C97.08 184.712 96.6467 185.719 95.78 186.506C94.9267 187.279 93.6267 187.666 91.88 187.666C90.36 187.666 89.04 187.392 87.92 186.846V185.746C88.4667 186.026 89.0933 186.252 89.8 186.426C90.5067 186.586 91.2067 186.666 91.9 186.666C93.26 186.666 94.26 186.379 94.9 185.806C95.5533 185.232 95.88 184.452 95.88 183.466C95.88 182.426 95.4933 181.686 94.72 181.246C93.9467 180.792 92.9133 180.566 91.62 180.566H90.1V179.566H91.64C92.7467 179.566 93.66 179.312 94.38 178.806C95.1 178.286 95.46 177.532 95.46 176.546C95.46 175.706 95.1867 175.066 94.64 174.626C94.0933 174.186 93.3667 173.966 92.46 173.966C91.7 173.966 91.0133 174.086 90.4 174.326C89.8 174.552 89.2067 174.866 88.62 175.266L88.04 174.466C88.5867 174.039 89.2267 173.686 89.96 173.406C90.7067 173.126 91.54 172.986 92.46 172.986C93.78 172.986 94.8067 173.306 95.54 173.946C96.2733 174.572 96.64 175.419 96.64 176.486ZM101.606 185.366C101.432 186.099 101.212 186.886 100.946 187.726C100.679 188.566 100.392 189.339 100.086 190.046H99.2258C99.7058 188.272 100.059 186.639 100.286 185.146H101.506L101.606 185.366ZM113.238 180.286C113.238 182.659 112.871 184.486 112.138 185.766C111.404 187.032 110.238 187.666 108.638 187.666C107.131 187.666 105.991 187.039 105.218 185.786C104.444 184.532 104.058 182.699 104.058 180.286C104.058 178.819 104.204 177.539 104.498 176.446C104.791 175.352 105.278 174.499 105.958 173.886C106.638 173.272 107.538 172.966 108.658 172.966C109.751 172.966 110.631 173.266 111.298 173.866C111.978 174.466 112.471 175.312 112.778 176.406C113.084 177.499 113.238 178.792 113.238 180.286ZM105.198 180.286C105.198 182.446 105.471 184.052 106.018 185.106C106.578 186.146 107.451 186.666 108.638 186.666C109.864 186.666 110.744 186.139 111.278 185.086C111.811 184.032 112.078 182.432 112.078 180.286C112.078 178.952 111.971 177.819 111.758 176.886C111.558 175.939 111.204 175.219 110.698 174.726C110.204 174.219 109.524 173.966 108.658 173.966C107.791 173.966 107.104 174.219 106.598 174.726C106.104 175.232 105.744 175.959 105.518 176.906C105.304 177.852 105.198 178.979 105.198 180.286Z" fill="#01457A"/>
<path d="M97.12 242.863H88.08V241.903L92.18 237.643C92.86 236.937 93.4333 236.303 93.9 235.743C94.3667 235.183 94.72 234.623 94.96 234.063C95.2 233.503 95.32 232.877 95.32 232.183C95.32 231.29 95.06 230.603 94.54 230.123C94.02 229.63 93.32 229.383 92.44 229.383C91.8 229.383 91.2 229.497 90.64 229.723C90.08 229.95 89.5267 230.277 88.98 230.703L88.36 229.903C88.9467 229.423 89.5867 229.05 90.28 228.783C90.9733 228.517 91.6933 228.383 92.44 228.383C93.6667 228.383 94.6467 228.723 95.38 229.403C96.1267 230.083 96.5 230.99 96.5 232.123C96.5 232.897 96.36 233.603 96.08 234.243C95.8 234.883 95.4067 235.51 94.9 236.123C94.3933 236.737 93.8 237.39 93.12 238.083L89.54 241.763V241.803H97.12V242.863ZM101.606 240.763C101.432 241.497 101.212 242.283 100.946 243.123C100.679 243.963 100.392 244.737 100.086 245.443H99.2258C99.7058 243.67 100.059 242.037 100.286 240.543H101.506L101.606 240.763ZM113.238 235.683C113.238 238.057 112.871 239.883 112.138 241.163C111.404 242.43 110.238 243.063 108.638 243.063C107.131 243.063 105.991 242.437 105.218 241.183C104.444 239.93 104.058 238.097 104.058 235.683C104.058 234.217 104.204 232.937 104.498 231.843C104.791 230.75 105.278 229.897 105.958 229.283C106.638 228.67 107.538 228.363 108.658 228.363C109.751 228.363 110.631 228.663 111.298 229.263C111.978 229.863 112.471 230.71 112.778 231.803C113.084 232.897 113.238 234.19 113.238 235.683ZM105.198 235.683C105.198 237.843 105.471 239.45 106.018 240.503C106.578 241.543 107.451 242.063 108.638 242.063C109.864 242.063 110.744 241.537 111.278 240.483C111.811 239.43 112.078 237.83 112.078 235.683C112.078 234.35 111.971 233.217 111.758 232.283C111.558 231.337 111.204 230.617 110.698 230.123C110.204 229.617 109.524 229.363 108.658 229.363C107.791 229.363 107.104 229.617 106.598 230.123C106.104 230.63 105.744 231.357 105.518 232.303C105.304 233.25 105.198 234.377 105.198 235.683Z" fill="#01457A"/>
<path d="M93.76 298.261H92.64V287.641C92.64 287.068 92.64 286.601 92.64 286.241C92.6533 285.868 92.6667 285.515 92.68 285.181C92.4933 285.368 92.3133 285.528 92.14 285.661C91.98 285.795 91.7733 285.961 91.52 286.161L89.54 287.701L88.92 286.901L92.8 283.981H93.76V298.261ZM101.606 296.161C101.432 296.895 101.212 297.681 100.946 298.521C100.679 299.361 100.392 300.135 100.086 300.841H99.2258C99.7058 299.068 100.059 297.435 100.286 295.941H101.506L101.606 296.161ZM113.238 291.081C113.238 293.455 112.871 295.281 112.138 296.561C111.404 297.828 110.238 298.461 108.638 298.461C107.131 298.461 105.991 297.835 105.218 296.581C104.444 295.328 104.058 293.495 104.058 291.081C104.058 289.615 104.204 288.335 104.498 287.241C104.791 286.148 105.278 285.295 105.958 284.681C106.638 284.068 107.538 283.761 108.658 283.761C109.751 283.761 110.631 284.061 111.298 284.661C111.978 285.261 112.471 286.108 112.778 287.201C113.084 288.295 113.238 289.588 113.238 291.081ZM105.198 291.081C105.198 293.241 105.471 294.848 106.018 295.901C106.578 296.941 107.451 297.461 108.638 297.461C109.864 297.461 110.744 296.935 111.278 295.881C111.811 294.828 112.078 293.228 112.078 291.081C112.078 289.748 111.971 288.615 111.758 287.681C111.558 286.735 111.204 286.015 110.698 285.521C110.204 285.015 109.524 284.761 108.658 284.761C107.791 284.761 107.104 285.015 106.598 285.521C106.104 286.028 105.744 286.755 105.518 287.701C105.304 288.648 105.198 289.775 105.198 291.081Z" fill="#01457A"/>
<rect x="180" y="318" width="51" height="36" fill="#78B3DB"/>
<rect x="240" y="277" width="51" height="77" fill="#BCD77E"/>
<path d="M202.891 376.44H200.511V380H199.411V376.44H192.231V375.5L199.331 365.64H200.511V375.4H202.891V376.44ZM199.411 370.1C199.411 369.58 199.411 369.14 199.411 368.78C199.411 368.42 199.418 368.1 199.431 367.82C199.445 367.527 199.458 367.22 199.471 366.9H199.411C199.238 367.207 199.071 367.493 198.911 367.76C198.751 368.027 198.558 368.313 198.331 368.62L193.451 375.4H199.411V370.1ZM208.697 371.36C210.137 371.36 211.277 371.727 212.117 372.46C212.971 373.18 213.397 374.207 213.397 375.54C213.397 376.993 212.931 378.133 211.997 378.96C211.064 379.787 209.804 380.2 208.217 380.2C207.457 380.2 206.764 380.127 206.137 379.98C205.524 379.833 205.004 379.633 204.577 379.38V378.26C205.031 378.54 205.577 378.767 206.217 378.94C206.871 379.113 207.537 379.2 208.217 379.2C209.417 379.2 210.384 378.9 211.117 378.3C211.864 377.687 212.237 376.8 212.237 375.64C212.237 374.6 211.917 373.793 211.277 373.22C210.651 372.633 209.691 372.34 208.397 372.34C207.904 372.34 207.411 372.38 206.917 372.46C206.437 372.54 206.004 372.627 205.617 372.72L204.977 372.3L205.557 365.72H212.477V366.76H206.537L206.117 371.66C206.397 371.607 206.751 371.547 207.177 371.48C207.604 371.4 208.111 371.36 208.697 371.36ZM215.423 375.12V374.08H220.263V375.12H215.423ZM232.188 376.44H229.808V380H228.708V376.44H221.528V375.5L228.628 365.64H229.808V375.4H232.188V376.44ZM228.708 370.1C228.708 369.58 228.708 369.14 228.708 368.78C228.708 368.42 228.715 368.1 228.728 367.82C228.742 367.527 228.755 367.22 228.768 366.9H228.708C228.535 367.207 228.368 367.493 228.208 367.76C228.048 368.027 227.855 368.313 227.628 368.62L222.748 375.4H228.708V370.1ZM242.694 371.78C242.694 373.487 242.474 374.973 242.034 376.24C241.607 377.493 240.934 378.473 240.014 379.18C239.094 379.873 237.901 380.22 236.434 380.22C236.101 380.22 235.747 380.2 235.374 380.16C235.001 380.12 234.694 380.06 234.454 379.98V378.96C234.694 379.04 234.987 379.107 235.334 379.16C235.694 379.213 236.054 379.24 236.414 379.24C238.121 379.24 239.387 378.66 240.214 377.5C241.054 376.34 241.501 374.693 241.554 372.56H241.474C241.194 373.08 240.741 373.547 240.114 373.96C239.487 374.373 238.674 374.58 237.674 374.58C236.394 374.58 235.387 374.2 234.654 373.44C233.921 372.667 233.554 371.607 233.554 370.26C233.554 368.82 233.947 367.673 234.734 366.82C235.521 365.953 236.601 365.52 237.974 365.52C239.001 365.52 239.861 365.787 240.554 366.32C241.261 366.853 241.794 367.593 242.154 368.54C242.514 369.473 242.694 370.553 242.694 371.78ZM237.974 366.5C236.947 366.5 236.141 366.827 235.554 367.48C234.981 368.12 234.694 369.04 234.694 370.24C234.694 371.293 234.954 372.127 235.474 372.74C235.994 373.34 236.794 373.64 237.874 373.64C238.621 373.64 239.261 373.493 239.794 373.2C240.341 372.893 240.761 372.52 241.054 372.08C241.347 371.627 241.494 371.18 241.494 370.74C241.494 370.34 241.427 369.9 241.294 369.42C241.174 368.927 240.981 368.46 240.714 368.02C240.447 367.58 240.087 367.22 239.634 366.94C239.181 366.647 238.627 366.5 237.974 366.5ZM258.395 380H257.235V370.34H253.635C253.475 372.58 253.262 374.42 252.995 375.86C252.729 377.3 252.355 378.367 251.875 379.06C251.409 379.753 250.789 380.1 250.015 380.1C249.682 380.1 249.422 380.067 249.235 380V379.1C249.369 379.14 249.569 379.16 249.835 379.16C250.649 379.16 251.262 378.367 251.675 376.78C252.089 375.193 252.409 372.72 252.635 369.36H258.395V380ZM265.95 369.16C266.857 369.16 267.61 369.373 268.21 369.8C268.824 370.213 269.284 370.787 269.59 371.52C269.91 372.253 270.07 373.093 270.07 374.04V374.82H262.47C262.47 376.233 262.797 377.32 263.45 378.08C264.117 378.827 265.064 379.2 266.29 379.2C266.944 379.2 267.517 379.147 268.01 379.04C268.504 378.92 269.044 378.733 269.63 378.48V379.52C269.097 379.76 268.57 379.933 268.05 380.04C267.53 380.147 266.93 380.2 266.25 380.2C264.65 380.2 263.424 379.713 262.57 378.74C261.717 377.767 261.29 376.44 261.29 374.76C261.29 373.68 261.47 372.72 261.83 371.88C262.204 371.04 262.737 370.38 263.43 369.9C264.124 369.407 264.964 369.16 265.95 369.16ZM265.93 370.12C264.957 370.12 264.164 370.447 263.55 371.1C262.95 371.753 262.604 372.68 262.51 373.88H268.89C268.89 372.76 268.644 371.853 268.15 371.16C267.67 370.467 266.93 370.12 265.93 370.12ZM279.826 370.34H276.266V380H275.126V370.34H271.586V369.36H279.826V370.34Z" fill="#01457A"/>
<rect x="328" y="302" width="51" height="52" fill="#78B3DB"/>
<rect x="388" y="232" width="51" height="122" fill="#BCD77E"/>
<path d="M345.271 371.36C346.711 371.36 347.851 371.727 348.691 372.46C349.545 373.18 349.971 374.207 349.971 375.54C349.971 376.993 349.505 378.133 348.571 378.96C347.638 379.787 346.378 380.2 344.791 380.2C344.031 380.2 343.338 380.127 342.711 379.98C342.098 379.833 341.578 379.633 341.151 379.38V378.26C341.605 378.54 342.151 378.767 342.791 378.94C343.445 379.113 344.111 379.2 344.791 379.2C345.991 379.2 346.958 378.9 347.691 378.3C348.438 377.687 348.811 376.8 348.811 375.64C348.811 374.6 348.491 373.793 347.851 373.22C347.225 372.633 346.265 372.34 344.971 372.34C344.478 372.34 343.985 372.38 343.491 372.46C343.011 372.54 342.578 372.627 342.191 372.72L341.551 372.3L342.131 365.72H349.051V366.76H343.111L342.691 371.66C342.971 371.607 343.325 371.547 343.751 371.48C344.178 371.4 344.685 371.36 345.271 371.36ZM361.497 372.82C361.497 375.193 361.131 377.02 360.397 378.3C359.664 379.567 358.497 380.2 356.897 380.2C355.391 380.2 354.251 379.573 353.477 378.32C352.704 377.067 352.317 375.233 352.317 372.82C352.317 371.353 352.464 370.073 352.757 368.98C353.051 367.887 353.537 367.033 354.217 366.42C354.897 365.807 355.797 365.5 356.917 365.5C358.011 365.5 358.891 365.8 359.557 366.4C360.237 367 360.731 367.847 361.037 368.94C361.344 370.033 361.497 371.327 361.497 372.82ZM353.457 372.82C353.457 374.98 353.731 376.587 354.277 377.64C354.837 378.68 355.711 379.2 356.897 379.2C358.124 379.2 359.004 378.673 359.537 377.62C360.071 376.567 360.337 374.967 360.337 372.82C360.337 371.487 360.231 370.353 360.017 369.42C359.817 368.473 359.464 367.753 358.957 367.26C358.464 366.753 357.784 366.5 356.917 366.5C356.051 366.5 355.364 366.753 354.857 367.26C354.364 367.767 354.004 368.493 353.777 369.44C353.564 370.387 353.457 371.513 353.457 372.82ZM363.423 375.12V374.08H368.263V375.12H363.423ZM374.568 371.36C376.008 371.36 377.148 371.727 377.988 372.46C378.842 373.18 379.268 374.207 379.268 375.54C379.268 376.993 378.802 378.133 377.868 378.96C376.935 379.787 375.675 380.2 374.088 380.2C373.328 380.2 372.635 380.127 372.008 379.98C371.395 379.833 370.875 379.633 370.448 379.38V378.26C370.902 378.54 371.448 378.767 372.088 378.94C372.742 379.113 373.408 379.2 374.088 379.2C375.288 379.2 376.255 378.9 376.988 378.3C377.735 377.687 378.108 376.8 378.108 375.64C378.108 374.6 377.788 373.793 377.148 373.22C376.522 372.633 375.562 372.34 374.268 372.34C373.775 372.34 373.282 372.38 372.788 372.46C372.308 372.54 371.875 372.627 371.488 372.72L370.848 372.3L371.428 365.72H378.348V366.76H372.408L371.988 371.66C372.268 371.607 372.622 371.547 373.048 371.48C373.475 371.4 373.982 371.36 374.568 371.36ZM391.614 376.44H389.234V380H388.134V376.44H380.954V375.5L388.054 365.64H389.234V375.4H391.614V376.44ZM388.134 370.1C388.134 369.58 388.134 369.14 388.134 368.78C388.134 368.42 388.141 368.1 388.154 367.82C388.167 367.527 388.181 367.22 388.194 366.9H388.134C387.961 367.207 387.794 367.493 387.634 367.76C387.474 368.027 387.281 368.313 387.054 368.62L382.174 375.4H388.134V370.1ZM406.395 380H405.235V370.34H401.635C401.475 372.58 401.262 374.42 400.995 375.86C400.729 377.3 400.355 378.367 399.875 379.06C399.409 379.753 398.789 380.1 398.015 380.1C397.682 380.1 397.422 380.067 397.235 380V379.1C397.369 379.14 397.569 379.16 397.835 379.16C398.649 379.16 399.262 378.367 399.675 376.78C400.089 375.193 400.409 372.72 400.635 369.36H406.395V380ZM413.95 369.16C414.857 369.16 415.61 369.373 416.21 369.8C416.824 370.213 417.284 370.787 417.59 371.52C417.91 372.253 418.07 373.093 418.07 374.04V374.82H410.47C410.47 376.233 410.797 377.32 411.45 378.08C412.117 378.827 413.064 379.2 414.29 379.2C414.944 379.2 415.517 379.147 416.01 379.04C416.504 378.92 417.044 378.733 417.63 378.48V379.52C417.097 379.76 416.57 379.933 416.05 380.04C415.53 380.147 414.93 380.2 414.25 380.2C412.65 380.2 411.424 379.713 410.57 378.74C409.717 377.767 409.29 376.44 409.29 374.76C409.29 373.68 409.47 372.72 409.83 371.88C410.204 371.04 410.737 370.38 411.43 369.9C412.124 369.407 412.964 369.16 413.95 369.16ZM413.93 370.12C412.957 370.12 412.164 370.447 411.55 371.1C410.95 371.753 410.604 372.68 410.51 373.88H416.89C416.89 372.76 416.644 371.853 416.15 371.16C415.67 370.467 414.93 370.12 413.93 370.12ZM427.826 370.34H424.266V380H423.126V370.34H419.586V369.36H427.826V370.34Z" fill="#01457A"/>
<rect x="476" y="184" width="51" height="170" fill="#78B3DB"/>
<rect x="536" y="222" width="51" height="132" fill="#BCD77E"/>
<path d="M493.271 371.36C494.711 371.36 495.851 371.727 496.691 372.46C497.545 373.18 497.971 374.207 497.971 375.54C497.971 376.993 497.505 378.133 496.571 378.96C495.638 379.787 494.378 380.2 492.791 380.2C492.031 380.2 491.338 380.127 490.711 379.98C490.098 379.833 489.578 379.633 489.151 379.38V378.26C489.605 378.54 490.151 378.767 490.791 378.94C491.445 379.113 492.111 379.2 492.791 379.2C493.991 379.2 494.958 378.9 495.691 378.3C496.438 377.687 496.811 376.8 496.811 375.64C496.811 374.6 496.491 373.793 495.851 373.22C495.225 372.633 494.265 372.34 492.971 372.34C492.478 372.34 491.985 372.38 491.491 372.46C491.011 372.54 490.578 372.627 490.191 372.72L489.551 372.3L490.131 365.72H497.051V366.76H491.111L490.691 371.66C490.971 371.607 491.325 371.547 491.751 371.48C492.178 371.4 492.685 371.36 493.271 371.36ZM504.697 371.36C506.137 371.36 507.277 371.727 508.117 372.46C508.971 373.18 509.397 374.207 509.397 375.54C509.397 376.993 508.931 378.133 507.997 378.96C507.064 379.787 505.804 380.2 504.217 380.2C503.457 380.2 502.764 380.127 502.137 379.98C501.524 379.833 501.004 379.633 500.577 379.38V378.26C501.031 378.54 501.577 378.767 502.217 378.94C502.871 379.113 503.537 379.2 504.217 379.2C505.417 379.2 506.384 378.9 507.117 378.3C507.864 377.687 508.237 376.8 508.237 375.64C508.237 374.6 507.917 373.793 507.277 373.22C506.651 372.633 505.691 372.34 504.397 372.34C503.904 372.34 503.411 372.38 502.917 372.46C502.437 372.54 502.004 372.627 501.617 372.72L500.977 372.3L501.557 365.72H508.477V366.76H502.537L502.117 371.66C502.397 371.607 502.751 371.547 503.177 371.48C503.604 371.4 504.111 371.36 504.697 371.36ZM511.423 375.12V374.08H516.263V375.12H511.423ZM522.568 371.36C524.008 371.36 525.148 371.727 525.988 372.46C526.842 373.18 527.268 374.207 527.268 375.54C527.268 376.993 526.802 378.133 525.868 378.96C524.935 379.787 523.675 380.2 522.088 380.2C521.328 380.2 520.635 380.127 520.008 379.98C519.395 379.833 518.875 379.633 518.448 379.38V378.26C518.902 378.54 519.448 378.767 520.088 378.94C520.742 379.113 521.408 379.2 522.088 379.2C523.288 379.2 524.255 378.9 524.988 378.3C525.735 377.687 526.108 376.8 526.108 375.64C526.108 374.6 525.788 373.793 525.148 373.22C524.522 372.633 523.562 372.34 522.268 372.34C521.775 372.34 521.282 372.38 520.788 372.46C520.308 372.54 519.875 372.627 519.488 372.72L518.848 372.3L519.428 365.72H526.348V366.76H520.408L519.988 371.66C520.268 371.607 520.622 371.547 521.048 371.48C521.475 371.4 521.982 371.36 522.568 371.36ZM538.694 371.78C538.694 373.487 538.474 374.973 538.034 376.24C537.607 377.493 536.934 378.473 536.014 379.18C535.094 379.873 533.901 380.22 532.434 380.22C532.101 380.22 531.747 380.2 531.374 380.16C531.001 380.12 530.694 380.06 530.454 379.98V378.96C530.694 379.04 530.987 379.107 531.334 379.16C531.694 379.213 532.054 379.24 532.414 379.24C534.121 379.24 535.387 378.66 536.214 377.5C537.054 376.34 537.501 374.693 537.554 372.56H537.474C537.194 373.08 536.741 373.547 536.114 373.96C535.487 374.373 534.674 374.58 533.674 374.58C532.394 374.58 531.387 374.2 530.654 373.44C529.921 372.667 529.554 371.607 529.554 370.26C529.554 368.82 529.947 367.673 530.734 366.82C531.521 365.953 532.601 365.52 533.974 365.52C535.001 365.52 535.861 365.787 536.554 366.32C537.261 366.853 537.794 367.593 538.154 368.54C538.514 369.473 538.694 370.553 538.694 371.78ZM533.974 366.5C532.947 366.5 532.141 366.827 531.554 367.48C530.981 368.12 530.694 369.04 530.694 370.24C530.694 371.293 530.954 372.127 531.474 372.74C531.994 373.34 532.794 373.64 533.874 373.64C534.621 373.64 535.261 373.493 535.794 373.2C536.341 372.893 536.761 372.52 537.054 372.08C537.347 371.627 537.494 371.18 537.494 370.74C537.494 370.34 537.427 369.9 537.294 369.42C537.174 368.927 536.981 368.46 536.714 368.02C536.447 367.58 536.087 367.22 535.634 366.94C535.181 366.647 534.627 366.5 533.974 366.5ZM554.395 380H553.235V370.34H549.635C549.475 372.58 549.262 374.42 548.995 375.86C548.729 377.3 548.355 378.367 547.875 379.06C547.409 379.753 546.789 380.1 546.015 380.1C545.682 380.1 545.422 380.067 545.235 380V379.1C545.369 379.14 545.569 379.16 545.835 379.16C546.649 379.16 547.262 378.367 547.675 376.78C548.089 375.193 548.409 372.72 548.635 369.36H554.395V380ZM561.95 369.16C562.857 369.16 563.61 369.373 564.21 369.8C564.824 370.213 565.284 370.787 565.59 371.52C565.91 372.253 566.07 373.093 566.07 374.04V374.82H558.47C558.47 376.233 558.797 377.32 559.45 378.08C560.117 378.827 561.064 379.2 562.29 379.2C562.944 379.2 563.517 379.147 564.01 379.04C564.504 378.92 565.044 378.733 565.63 378.48V379.52C565.097 379.76 564.57 379.933 564.05 380.04C563.53 380.147 562.93 380.2 562.25 380.2C560.65 380.2 559.424 379.713 558.57 378.74C557.717 377.767 557.29 376.44 557.29 374.76C557.29 373.68 557.47 372.72 557.83 371.88C558.204 371.04 558.737 370.38 559.43 369.9C560.124 369.407 560.964 369.16 561.95 369.16ZM561.93 370.12C560.957 370.12 560.164 370.447 559.55 371.1C558.95 371.753 558.604 372.68 558.51 373.88H564.89C564.89 372.76 564.644 371.853 564.15 371.16C563.67 370.467 562.93 370.12 561.93 370.12ZM575.826 370.34H572.266V380H571.126V370.34H567.586V369.36H575.826V370.34Z" fill="#01457A"/>
<rect x="624" y="128" width="51" height="226" fill="#78B3DB"/>
<rect x="684" y="118" width="51" height="236" fill="#BCD77E"/>
<path d="M637.011 373.92C637.011 372.213 637.225 370.733 637.651 369.48C638.078 368.213 638.751 367.233 639.671 366.54C640.605 365.847 641.805 365.5 643.271 365.5C643.991 365.5 644.611 365.573 645.131 365.72V366.74C644.611 366.553 643.998 366.46 643.291 366.46C641.571 366.46 640.298 367.04 639.471 368.2C638.645 369.36 638.198 371.007 638.131 373.14H638.211C638.491 372.633 638.938 372.173 639.551 371.76C640.178 371.347 640.991 371.14 641.991 371.14C643.271 371.14 644.285 371.527 645.031 372.3C645.778 373.06 646.151 374.107 646.151 375.44C646.151 376.88 645.758 378.033 644.971 378.9C644.198 379.767 643.125 380.2 641.751 380.2C640.725 380.2 639.858 379.933 639.151 379.4C638.445 378.853 637.911 378.113 637.551 377.18C637.191 376.233 637.011 375.147 637.011 373.92ZM641.731 379.2C642.758 379.2 643.558 378.88 644.131 378.24C644.718 377.6 645.011 376.667 645.011 375.44C645.011 374.4 644.745 373.58 644.211 372.98C643.678 372.38 642.878 372.08 641.811 372.08C641.078 372.08 640.438 372.233 639.891 372.54C639.358 372.833 638.945 373.2 638.651 373.64C638.358 374.08 638.211 374.513 638.211 374.94C638.211 375.367 638.271 375.827 638.391 376.32C638.511 376.8 638.705 377.26 638.971 377.7C639.251 378.14 639.618 378.5 640.071 378.78C640.525 379.06 641.078 379.2 641.731 379.2ZM657.497 372.82C657.497 375.193 657.131 377.02 656.397 378.3C655.664 379.567 654.497 380.2 652.897 380.2C651.391 380.2 650.251 379.573 649.477 378.32C648.704 377.067 648.317 375.233 648.317 372.82C648.317 371.353 648.464 370.073 648.757 368.98C649.051 367.887 649.537 367.033 650.217 366.42C650.897 365.807 651.797 365.5 652.917 365.5C654.011 365.5 654.891 365.8 655.557 366.4C656.237 367 656.731 367.847 657.037 368.94C657.344 370.033 657.497 371.327 657.497 372.82ZM649.457 372.82C649.457 374.98 649.731 376.587 650.277 377.64C650.837 378.68 651.711 379.2 652.897 379.2C654.124 379.2 655.004 378.673 655.537 377.62C656.071 376.567 656.337 374.967 656.337 372.82C656.337 371.487 656.231 370.353 656.017 369.42C655.817 368.473 655.464 367.753 654.957 367.26C654.464 366.753 653.784 366.5 652.917 366.5C652.051 366.5 651.364 366.753 650.857 367.26C650.364 367.767 650.004 368.493 649.777 369.44C649.564 370.387 649.457 371.513 649.457 372.82ZM659.423 375.12V374.08H664.263V375.12H659.423ZM666.308 373.92C666.308 372.213 666.522 370.733 666.948 369.48C667.375 368.213 668.048 367.233 668.968 366.54C669.902 365.847 671.102 365.5 672.568 365.5C673.288 365.5 673.908 365.573 674.428 365.72V366.74C673.908 366.553 673.295 366.46 672.588 366.46C670.868 366.46 669.595 367.04 668.768 368.2C667.942 369.36 667.495 371.007 667.428 373.14H667.508C667.788 372.633 668.235 372.173 668.848 371.76C669.475 371.347 670.288 371.14 671.288 371.14C672.568 371.14 673.582 371.527 674.328 372.3C675.075 373.06 675.448 374.107 675.448 375.44C675.448 376.88 675.055 378.033 674.268 378.9C673.495 379.767 672.422 380.2 671.048 380.2C670.022 380.2 669.155 379.933 668.448 379.4C667.742 378.853 667.208 378.113 666.848 377.18C666.488 376.233 666.308 375.147 666.308 373.92ZM671.028 379.2C672.055 379.2 672.855 378.88 673.428 378.24C674.015 377.6 674.308 376.667 674.308 375.44C674.308 374.4 674.042 373.58 673.508 372.98C672.975 372.38 672.175 372.08 671.108 372.08C670.375 372.08 669.735 372.233 669.188 372.54C668.655 372.833 668.242 373.2 667.948 373.64C667.655 374.08 667.508 374.513 667.508 374.94C667.508 375.367 667.568 375.827 667.688 376.32C667.808 376.8 668.002 377.26 668.268 377.7C668.548 378.14 668.915 378.5 669.368 378.78C669.822 379.06 670.375 379.2 671.028 379.2ZM687.614 376.44H685.234V380H684.134V376.44H676.954V375.5L684.054 365.64H685.234V375.4H687.614V376.44ZM684.134 370.1C684.134 369.58 684.134 369.14 684.134 368.78C684.134 368.42 684.141 368.1 684.154 367.82C684.167 367.527 684.181 367.22 684.194 366.9H684.134C683.961 367.207 683.794 367.493 683.634 367.76C683.474 368.027 683.281 368.313 683.054 368.62L678.174 375.4H684.134V370.1ZM702.395 380H701.235V370.34H697.635C697.475 372.58 697.262 374.42 696.995 375.86C696.729 377.3 696.355 378.367 695.875 379.06C695.409 379.753 694.789 380.1 694.015 380.1C693.682 380.1 693.422 380.067 693.235 380V379.1C693.369 379.14 693.569 379.16 693.835 379.16C694.649 379.16 695.262 378.367 695.675 376.78C696.089 375.193 696.409 372.72 696.635 369.36H702.395V380ZM709.95 369.16C710.857 369.16 711.61 369.373 712.21 369.8C712.824 370.213 713.284 370.787 713.59 371.52C713.91 372.253 714.07 373.093 714.07 374.04V374.82H706.47C706.47 376.233 706.797 377.32 707.45 378.08C708.117 378.827 709.064 379.2 710.29 379.2C710.944 379.2 711.517 379.147 712.01 379.04C712.504 378.92 713.044 378.733 713.63 378.48V379.52C713.097 379.76 712.57 379.933 712.05 380.04C711.53 380.147 710.93 380.2 710.25 380.2C708.65 380.2 707.424 379.713 706.57 378.74C705.717 377.767 705.29 376.44 705.29 374.76C705.29 373.68 705.47 372.72 705.83 371.88C706.204 371.04 706.737 370.38 707.43 369.9C708.124 369.407 708.964 369.16 709.95 369.16ZM709.93 370.12C708.957 370.12 708.164 370.447 707.55 371.1C706.95 371.753 706.604 372.68 706.51 373.88H712.89C712.89 372.76 712.644 371.853 712.15 371.16C711.67 370.467 710.93 370.12 709.93 370.12ZM723.826 370.34H720.266V380H719.126V370.34H715.586V369.36H723.826V370.34Z" fill="#01457A"/>
<rect x="920" y="36" width="51" height="318" fill="#78B3DB"/>
<rect x="980" y="151" width="51" height="203" fill="#BCD77E"/>
<path d="M934.971 380L940.871 366.76H932.791V365.72H942.111V366.56L936.231 380H934.971ZM953.497 372.82C953.497 375.193 953.131 377.02 952.397 378.3C951.664 379.567 950.497 380.2 948.897 380.2C947.391 380.2 946.251 379.573 945.477 378.32C944.704 377.067 944.317 375.233 944.317 372.82C944.317 371.353 944.464 370.073 944.757 368.98C945.051 367.887 945.537 367.033 946.217 366.42C946.897 365.807 947.797 365.5 948.917 365.5C950.011 365.5 950.891 365.8 951.557 366.4C952.237 367 952.731 367.847 953.037 368.94C953.344 370.033 953.497 371.327 953.497 372.82ZM945.457 372.82C945.457 374.98 945.731 376.587 946.277 377.64C946.837 378.68 947.711 379.2 948.897 379.2C950.124 379.2 951.004 378.673 951.537 377.62C952.071 376.567 952.337 374.967 952.337 372.82C952.337 371.487 952.231 370.353 952.017 369.42C951.817 368.473 951.464 367.753 950.957 367.26C950.464 366.753 949.784 366.5 948.917 366.5C948.051 366.5 947.364 366.753 946.857 367.26C946.364 367.767 946.004 368.493 945.777 369.44C945.564 370.387 945.457 371.513 945.457 372.82ZM955.423 375.12V374.08H960.263V375.12H955.423ZM964.268 380L970.168 366.76H962.088V365.72H971.408V366.56L965.528 380H964.268ZM983.614 376.44H981.234V380H980.134V376.44H972.954V375.5L980.054 365.64H981.234V375.4H983.614V376.44ZM980.134 370.1C980.134 369.58 980.134 369.14 980.134 368.78C980.134 368.42 980.141 368.1 980.154 367.82C980.167 367.527 980.181 367.22 980.194 366.9H980.134C979.961 367.207 979.794 367.493 979.634 367.76C979.474 368.027 979.281 368.313 979.054 368.62L974.174 375.4H980.134V370.1ZM998.395 380H997.235V370.34H993.635C993.475 372.58 993.262 374.42 992.995 375.86C992.729 377.3 992.355 378.367 991.875 379.06C991.409 379.753 990.789 380.1 990.015 380.1C989.682 380.1 989.422 380.067 989.235 380V379.1C989.369 379.14 989.569 379.16 989.835 379.16C990.649 379.16 991.262 378.367 991.675 376.78C992.089 375.193 992.409 372.72 992.635 369.36H998.395V380ZM1005.95 369.16C1006.86 369.16 1007.61 369.373 1008.21 369.8C1008.82 370.213 1009.28 370.787 1009.59 371.52C1009.91 372.253 1010.07 373.093 1010.07 374.04V374.82H1002.47C1002.47 376.233 1002.8 377.32 1003.45 378.08C1004.12 378.827 1005.06 379.2 1006.29 379.2C1006.94 379.2 1007.52 379.147 1008.01 379.04C1008.5 378.92 1009.04 378.733 1009.63 378.48V379.52C1009.1 379.76 1008.57 379.933 1008.05 380.04C1007.53 380.147 1006.93 380.2 1006.25 380.2C1004.65 380.2 1003.42 379.713 1002.57 378.74C1001.72 377.767 1001.29 376.44 1001.29 374.76C1001.29 373.68 1001.47 372.72 1001.83 371.88C1002.2 371.04 1002.74 370.38 1003.43 369.9C1004.12 369.407 1004.96 369.16 1005.95 369.16ZM1005.93 370.12C1004.96 370.12 1004.16 370.447 1003.55 371.1C1002.95 371.753 1002.6 372.68 1002.51 373.88H1008.89C1008.89 372.76 1008.64 371.853 1008.15 371.16C1007.67 370.467 1006.93 370.12 1005.93 370.12ZM1019.83 370.34H1016.27V380H1015.13V370.34H1011.59V369.36H1019.83V370.34Z" fill="#01457A"/>
<rect x="772" y="72" width="51" height="282" fill="#78B3DB"/>
<rect x="832" y="118" width="51" height="236" fill="#BCD77E"/>
<path d="M785.011 373.92C785.011 372.213 785.225 370.733 785.651 369.48C786.078 368.213 786.751 367.233 787.671 366.54C788.605 365.847 789.805 365.5 791.271 365.5C791.991 365.5 792.611 365.573 793.131 365.72V366.74C792.611 366.553 791.998 366.46 791.291 366.46C789.571 366.46 788.298 367.04 787.471 368.2C786.645 369.36 786.198 371.007 786.131 373.14H786.211C786.491 372.633 786.938 372.173 787.551 371.76C788.178 371.347 788.991 371.14 789.991 371.14C791.271 371.14 792.285 371.527 793.031 372.3C793.778 373.06 794.151 374.107 794.151 375.44C794.151 376.88 793.758 378.033 792.971 378.9C792.198 379.767 791.125 380.2 789.751 380.2C788.725 380.2 787.858 379.933 787.151 379.4C786.445 378.853 785.911 378.113 785.551 377.18C785.191 376.233 785.011 375.147 785.011 373.92ZM789.731 379.2C790.758 379.2 791.558 378.88 792.131 378.24C792.718 377.6 793.011 376.667 793.011 375.44C793.011 374.4 792.745 373.58 792.211 372.98C791.678 372.38 790.878 372.08 789.811 372.08C789.078 372.08 788.438 372.233 787.891 372.54C787.358 372.833 786.945 373.2 786.651 373.64C786.358 374.08 786.211 374.513 786.211 374.94C786.211 375.367 786.271 375.827 786.391 376.32C786.511 376.8 786.705 377.26 786.971 377.7C787.251 378.14 787.618 378.5 788.071 378.78C788.525 379.06 789.078 379.2 789.731 379.2ZM800.697 371.36C802.137 371.36 803.277 371.727 804.117 372.46C804.971 373.18 805.397 374.207 805.397 375.54C805.397 376.993 804.931 378.133 803.997 378.96C803.064 379.787 801.804 380.2 800.217 380.2C799.457 380.2 798.764 380.127 798.137 379.98C797.524 379.833 797.004 379.633 796.577 379.38V378.26C797.031 378.54 797.577 378.767 798.217 378.94C798.871 379.113 799.537 379.2 800.217 379.2C801.417 379.2 802.384 378.9 803.117 378.3C803.864 377.687 804.237 376.8 804.237 375.64C804.237 374.6 803.917 373.793 803.277 373.22C802.651 372.633 801.691 372.34 800.397 372.34C799.904 372.34 799.411 372.38 798.917 372.46C798.437 372.54 798.004 372.627 797.617 372.72L796.977 372.3L797.557 365.72H804.477V366.76H798.537L798.117 371.66C798.397 371.607 798.751 371.547 799.177 371.48C799.604 371.4 800.111 371.36 800.697 371.36ZM807.423 375.12V374.08H812.263V375.12H807.423ZM814.308 373.92C814.308 372.213 814.522 370.733 814.948 369.48C815.375 368.213 816.048 367.233 816.968 366.54C817.902 365.847 819.102 365.5 820.568 365.5C821.288 365.5 821.908 365.573 822.428 365.72V366.74C821.908 366.553 821.295 366.46 820.588 366.46C818.868 366.46 817.595 367.04 816.768 368.2C815.942 369.36 815.495 371.007 815.428 373.14H815.508C815.788 372.633 816.235 372.173 816.848 371.76C817.475 371.347 818.288 371.14 819.288 371.14C820.568 371.14 821.582 371.527 822.328 372.3C823.075 373.06 823.448 374.107 823.448 375.44C823.448 376.88 823.055 378.033 822.268 378.9C821.495 379.767 820.422 380.2 819.048 380.2C818.022 380.2 817.155 379.933 816.448 379.4C815.742 378.853 815.208 378.113 814.848 377.18C814.488 376.233 814.308 375.147 814.308 373.92ZM819.028 379.2C820.055 379.2 820.855 378.88 821.428 378.24C822.015 377.6 822.308 376.667 822.308 375.44C822.308 374.4 822.042 373.58 821.508 372.98C820.975 372.38 820.175 372.08 819.108 372.08C818.375 372.08 817.735 372.233 817.188 372.54C816.655 372.833 816.242 373.2 815.948 373.64C815.655 374.08 815.508 374.513 815.508 374.94C815.508 375.367 815.568 375.827 815.688 376.32C815.808 376.8 816.002 377.26 816.268 377.7C816.548 378.14 816.915 378.5 817.368 378.78C817.822 379.06 818.375 379.2 819.028 379.2ZM834.694 371.78C834.694 373.487 834.474 374.973 834.034 376.24C833.607 377.493 832.934 378.473 832.014 379.18C831.094 379.873 829.901 380.22 828.434 380.22C828.101 380.22 827.747 380.2 827.374 380.16C827.001 380.12 826.694 380.06 826.454 379.98V378.96C826.694 379.04 826.987 379.107 827.334 379.16C827.694 379.213 828.054 379.24 828.414 379.24C830.121 379.24 831.387 378.66 832.214 377.5C833.054 376.34 833.501 374.693 833.554 372.56H833.474C833.194 373.08 832.741 373.547 832.114 373.96C831.487 374.373 830.674 374.58 829.674 374.58C828.394 374.58 827.387 374.2 826.654 373.44C825.921 372.667 825.554 371.607 825.554 370.26C825.554 368.82 825.947 367.673 826.734 366.82C827.521 365.953 828.601 365.52 829.974 365.52C831.001 365.52 831.861 365.787 832.554 366.32C833.261 366.853 833.794 367.593 834.154 368.54C834.514 369.473 834.694 370.553 834.694 371.78ZM829.974 366.5C828.947 366.5 828.141 366.827 827.554 367.48C826.981 368.12 826.694 369.04 826.694 370.24C826.694 371.293 826.954 372.127 827.474 372.74C827.994 373.34 828.794 373.64 829.874 373.64C830.621 373.64 831.261 373.493 831.794 373.2C832.341 372.893 832.761 372.52 833.054 372.08C833.347 371.627 833.494 371.18 833.494 370.74C833.494 370.34 833.427 369.9 833.294 369.42C833.174 368.927 832.981 368.46 832.714 368.02C832.447 367.58 832.087 367.22 831.634 366.94C831.181 366.647 830.627 366.5 829.974 366.5ZM850.395 380H849.235V370.34H845.635C845.475 372.58 845.262 374.42 844.995 375.86C844.729 377.3 844.355 378.367 843.875 379.06C843.409 379.753 842.789 380.1 842.015 380.1C841.682 380.1 841.422 380.067 841.235 380V379.1C841.369 379.14 841.569 379.16 841.835 379.16C842.649 379.16 843.262 378.367 843.675 376.78C844.089 375.193 844.409 372.72 844.635 369.36H850.395V380ZM857.95 369.16C858.857 369.16 859.61 369.373 860.21 369.8C860.824 370.213 861.284 370.787 861.59 371.52C861.91 372.253 862.07 373.093 862.07 374.04V374.82H854.47C854.47 376.233 854.797 377.32 855.45 378.08C856.117 378.827 857.064 379.2 858.29 379.2C858.944 379.2 859.517 379.147 860.01 379.04C860.504 378.92 861.044 378.733 861.63 378.48V379.52C861.097 379.76 860.57 379.933 860.05 380.04C859.53 380.147 858.93 380.2 858.25 380.2C856.65 380.2 855.424 379.713 854.57 378.74C853.717 377.767 853.29 376.44 853.29 374.76C853.29 373.68 853.47 372.72 853.83 371.88C854.204 371.04 854.737 370.38 855.43 369.9C856.124 369.407 856.964 369.16 857.95 369.16ZM857.93 370.12C856.957 370.12 856.164 370.447 855.55 371.1C854.95 371.753 854.604 372.68 854.51 373.88H860.89C860.89 372.76 860.644 371.853 860.15 371.16C859.67 370.467 858.93 370.12 857.93 370.12ZM871.826 370.34H868.266V380H867.126V370.34H863.586V369.36H871.826V370.34Z" fill="#01457A"/>
<rect x="1068" y="253" width="51" height="101" fill="#78B3DB"/>
<rect x="1128" y="222" width="51" height="132" fill="#BCD77E"/>
<path d="M1082.97 380L1088.87 366.76H1080.79V365.72H1090.11V366.56L1084.23 380H1082.97ZM1096.7 371.36C1098.14 371.36 1099.28 371.727 1100.12 372.46C1100.97 373.18 1101.4 374.207 1101.4 375.54C1101.4 376.993 1100.93 378.133 1100 378.96C1099.06 379.787 1097.8 380.2 1096.22 380.2C1095.46 380.2 1094.76 380.127 1094.14 379.98C1093.52 379.833 1093 379.633 1092.58 379.38V378.26C1093.03 378.54 1093.58 378.767 1094.22 378.94C1094.87 379.113 1095.54 379.2 1096.22 379.2C1097.42 379.2 1098.38 378.9 1099.12 378.3C1099.86 377.687 1100.24 376.8 1100.24 375.64C1100.24 374.6 1099.92 373.793 1099.28 373.22C1098.65 372.633 1097.69 372.34 1096.4 372.34C1095.9 372.34 1095.41 372.38 1094.92 372.46C1094.44 372.54 1094 372.627 1093.62 372.72L1092.98 372.3L1093.56 365.72H1100.48V366.76H1094.54L1094.12 371.66C1094.4 371.607 1094.75 371.547 1095.18 371.48C1095.6 371.4 1096.11 371.36 1096.7 371.36ZM1103.42 375.12V374.08H1108.26V375.12H1103.42ZM1114.75 365.52C1115.98 365.52 1116.96 365.813 1117.71 366.4C1118.47 366.973 1118.85 367.793 1118.85 368.86C1118.85 369.727 1118.56 370.44 1117.99 371C1117.43 371.547 1116.72 372.013 1115.85 372.4C1116.88 372.813 1117.71 373.327 1118.35 373.94C1119 374.54 1119.33 375.34 1119.33 376.34C1119.33 377.153 1119.13 377.847 1118.73 378.42C1118.34 378.993 1117.8 379.433 1117.11 379.74C1116.42 380.047 1115.63 380.2 1114.75 380.2C1113.35 380.2 1112.24 379.86 1111.43 379.18C1110.62 378.5 1110.21 377.58 1110.21 376.42C1110.21 375.393 1110.52 374.573 1111.15 373.96C1111.79 373.333 1112.59 372.833 1113.55 372.46C1113.02 372.207 1112.53 371.927 1112.09 371.62C1111.65 371.3 1111.3 370.92 1111.05 370.48C1110.8 370.027 1110.67 369.487 1110.67 368.86C1110.67 368.167 1110.84 367.573 1111.19 367.08C1111.54 366.573 1112.02 366.187 1112.63 365.92C1113.26 365.653 1113.96 365.52 1114.75 365.52ZM1114.75 366.48C1113.88 366.48 1113.17 366.693 1112.61 367.12C1112.06 367.533 1111.79 368.127 1111.79 368.9C1111.79 369.7 1112.07 370.327 1112.63 370.78C1113.2 371.22 1113.94 371.607 1114.83 371.94C1115.72 371.567 1116.42 371.153 1116.93 370.7C1117.45 370.247 1117.71 369.64 1117.71 368.88C1117.71 368.093 1117.44 367.5 1116.91 367.1C1116.38 366.687 1115.66 366.48 1114.75 366.48ZM1111.33 376.44C1111.33 377.28 1111.62 377.96 1112.21 378.48C1112.81 378.987 1113.65 379.24 1114.73 379.24C1115.78 379.24 1116.62 378.987 1117.25 378.48C1117.88 377.973 1118.19 377.26 1118.19 376.34C1118.19 375.567 1117.91 374.927 1117.35 374.42C1116.8 373.913 1116.03 373.473 1115.03 373.1L1114.59 372.94C1113.62 373.313 1112.83 373.767 1112.23 374.3C1111.63 374.82 1111.33 375.533 1111.33 376.44ZM1130.79 372.82C1130.79 375.193 1130.43 377.02 1129.69 378.3C1128.96 379.567 1127.79 380.2 1126.19 380.2C1124.69 380.2 1123.55 379.573 1122.77 378.32C1122 377.067 1121.61 375.233 1121.61 372.82C1121.61 371.353 1121.76 370.073 1122.05 368.98C1122.35 367.887 1122.83 367.033 1123.51 366.42C1124.19 365.807 1125.09 365.5 1126.21 365.5C1127.31 365.5 1128.19 365.8 1128.85 366.4C1129.53 367 1130.03 367.847 1130.33 368.94C1130.64 370.033 1130.79 371.327 1130.79 372.82ZM1122.75 372.82C1122.75 374.98 1123.03 376.587 1123.57 377.64C1124.13 378.68 1125.01 379.2 1126.19 379.2C1127.42 379.2 1128.3 378.673 1128.83 377.62C1129.37 376.567 1129.63 374.967 1129.63 372.82C1129.63 371.487 1129.53 370.353 1129.31 369.42C1129.11 368.473 1128.76 367.753 1128.25 367.26C1127.76 366.753 1127.08 366.5 1126.21 366.5C1125.35 366.5 1124.66 366.753 1124.15 367.26C1123.66 367.767 1123.3 368.493 1123.07 369.44C1122.86 370.387 1122.75 371.513 1122.75 372.82ZM1146.4 380H1145.24V370.34H1141.64C1141.48 372.58 1141.26 374.42 1141 375.86C1140.73 377.3 1140.36 378.367 1139.88 379.06C1139.41 379.753 1138.79 380.1 1138.02 380.1C1137.68 380.1 1137.42 380.067 1137.24 380V379.1C1137.37 379.14 1137.57 379.16 1137.84 379.16C1138.65 379.16 1139.26 378.367 1139.68 376.78C1140.09 375.193 1140.41 372.72 1140.64 369.36H1146.4V380ZM1153.95 369.16C1154.86 369.16 1155.61 369.373 1156.21 369.8C1156.82 370.213 1157.28 370.787 1157.59 371.52C1157.91 372.253 1158.07 373.093 1158.07 374.04V374.82H1150.47C1150.47 376.233 1150.8 377.32 1151.45 378.08C1152.12 378.827 1153.06 379.2 1154.29 379.2C1154.94 379.2 1155.52 379.147 1156.01 379.04C1156.5 378.92 1157.04 378.733 1157.63 378.48V379.52C1157.1 379.76 1156.57 379.933 1156.05 380.04C1155.53 380.147 1154.93 380.2 1154.25 380.2C1152.65 380.2 1151.42 379.713 1150.57 378.74C1149.72 377.767 1149.29 376.44 1149.29 374.76C1149.29 373.68 1149.47 372.72 1149.83 371.88C1150.2 371.04 1150.74 370.38 1151.43 369.9C1152.12 369.407 1152.96 369.16 1153.95 369.16ZM1153.93 370.12C1152.96 370.12 1152.16 370.447 1151.55 371.1C1150.95 371.753 1150.6 372.68 1150.51 373.88H1156.89C1156.89 372.76 1156.64 371.853 1156.15 371.16C1155.67 370.467 1154.93 370.12 1153.93 370.12ZM1167.83 370.34H1164.27V380H1163.13V370.34H1159.59V369.36H1167.83V370.34Z" fill="#01457A"/>
<path d="M97.3 346.479C97.3 348.853 96.9333 350.679 96.2 351.959C95.4667 353.226 94.3 353.859 92.7 353.859C91.1933 353.859 90.0533 353.233 89.28 351.979C88.5067 350.726 88.12 348.893 88.12 346.479C88.12 345.013 88.2667 343.733 88.56 342.639C88.8533 341.546 89.34 340.693 90.02 340.079C90.7 339.466 91.6 339.159 92.72 339.159C93.8133 339.159 94.6933 339.459 95.36 340.059C96.04 340.659 96.5333 341.506 96.84 342.599C97.1467 343.693 97.3 344.986 97.3 346.479ZM89.26 346.479C89.26 348.639 89.5333 350.246 90.08 351.299C90.64 352.339 91.5133 352.859 92.7 352.859C93.9267 352.859 94.8067 352.333 95.34 351.279C95.8733 350.226 96.14 348.626 96.14 346.479C96.14 345.146 96.0333 344.013 95.82 343.079C95.62 342.133 95.2667 341.413 94.76 340.919C94.2667 340.413 93.5867 340.159 92.72 340.159C91.8533 340.159 91.1667 340.413 90.66 340.919C90.1667 341.426 89.8067 342.153 89.58 343.099C89.3667 344.046 89.26 345.173 89.26 346.479ZM101.606 351.559C101.432 352.293 101.212 353.079 100.946 353.919C100.679 354.759 100.392 355.533 100.086 356.239H99.2258C99.7058 354.466 100.059 352.833 100.286 351.339H101.506L101.606 351.559ZM113.238 346.479C113.238 348.853 112.871 350.679 112.138 351.959C111.404 353.226 110.238 353.859 108.638 353.859C107.131 353.859 105.991 353.233 105.218 351.979C104.444 350.726 104.058 348.893 104.058 346.479C104.058 345.013 104.204 343.733 104.498 342.639C104.791 341.546 105.278 340.693 105.958 340.079C106.638 339.466 107.538 339.159 108.658 339.159C109.751 339.159 110.631 339.459 111.298 340.059C111.978 340.659 112.471 341.506 112.778 342.599C113.084 343.693 113.238 344.986 113.238 346.479ZM105.198 346.479C105.198 348.639 105.471 350.246 106.018 351.299C106.578 352.339 107.451 352.859 108.638 352.859C109.864 352.859 110.744 352.333 111.278 351.279C111.811 350.226 112.078 348.626 112.078 346.479C112.078 345.146 111.971 344.013 111.758 343.079C111.558 342.133 111.204 341.413 110.698 340.919C110.204 340.413 109.524 340.159 108.658 340.159C107.791 340.159 107.104 340.413 106.598 340.919C106.104 341.426 105.744 342.153 105.518 343.099C105.304 344.046 105.198 345.173 105.198 346.479Z" fill="#01457A"/>
</svg>
