<svg width="49" height="49" viewBox="0 0 49 49" fill="none" xmlns="http://www.w3.org/2000/svg">
<circle cx="24.1293" cy="24.1293" r="24.1293" fill="#BCD77E"/>
<path d="M31.7208 19.155C31.3807 19.1599 31.0444 19.2268 30.7285 19.3524C30.6376 18.7644 30.3276 18.2319 29.8601 17.8609C29.3926 17.4898 28.8018 17.3073 28.2051 17.3495C27.6085 17.3918 27.0498 17.6558 26.64 18.0891C26.442 17.6903 26.1371 17.3538 25.7587 17.1168C25.3803 16.8799 24.9435 16.7518 24.4964 16.7466C23.9791 16.7343 23.4738 16.9019 23.0674 17.2205V9.60059C22.9662 8.81971 22.4878 8.13725 21.7858 7.77316C21.0841 7.40895 20.2475 7.40895 19.5458 7.77316C18.8438 8.13725 18.3654 8.81971 18.2642 9.60059V23.9323L16.3986 21.366C15.9177 20.7351 15.2056 20.3189 14.4173 20.2079C13.6292 20.097 12.829 20.3004 12.1909 20.7738C11.4362 21.3288 10.9937 22.2091 11.0001 23.1427C11.0017 23.7769 11.1953 24.396 11.5558 24.9194L17.907 33.4473C18.6119 34.3828 19.2613 35.3583 19.852 36.369C20.9238 38.1456 21.3605 38.8168 23.7818 38.8168H29.3391C31.443 38.8168 31.8001 37.2375 32.0385 36.0531C32.2766 34.8686 32.2766 34.8292 32.6339 34.4738C34.0629 32.9735 34.1025 30.4467 34.1025 29.2623V21.5239C34.1025 20.8957 33.8516 20.2932 33.405 19.8489C32.9583 19.4046 32.3526 19.155 31.7208 19.155Z" fill="white"/>
</svg>
