<svg width="103" height="134" viewBox="0 0 103 134" fill="none" xmlns="http://www.w3.org/2000/svg">
<g clip-path="url(#clip0_1_73)">
<mask id="mask0_1_73" style="mask-type:luminance" maskUnits="userSpaceOnUse" x="0" y="0" width="103" height="134">
<path d="M103 0H0V134H103V0Z" fill="white"/>
</mask>
<g mask="url(#mask0_1_73)">
<path fill-rule="evenodd" clip-rule="evenodd" d="M64.0845 50.8276C75.8873 50.8276 83.425 39.4099 84.338 30.2932C90.8363 28.7499 97.0399 15.0774 91.4779 16.3019C88.8373 16.8563 87.269 14.5136 84.708 10.3042C81.9083 5.71584 78.4249 0 71.4864 0C67.1838 0 64.815 1.08123 63.6398 1.88985C61.8842 1.57564 58.045 1.32153 54.7163 4.0847C51.336 6.88946 49.5429 11.8982 49.3275 18.9355C48.4052 19.6379 47.6653 20.8947 47.2252 22.5766C46.3825 25.7741 46.7383 30.0622 49.3086 32.5435C49.6129 39.4099 52.9558 50.8276 64.0845 50.8276ZM64.0845 46.7614C53.1618 46.7614 52.9886 32.1323 52.9886 31.5131C52.9839 30.8154 52.6562 30.1639 52.1225 29.7942C50.0765 28.3803 50.1841 23.815 51.3452 22.3688C55.0064 22.4797 54.056 24.8963 56.1862 24.3418C59.5384 23.4639 62.2539 21.1582 63.8784 19.467C66.3504 22.9464 72.0623 29.4846 80.5926 30.3949C79.6656 37.0857 74.1504 46.7614 64.0845 46.7614ZM56.912 7.35619C59.8147 4.9257 63.5462 6.01618 63.579 6.0208C65.4142 6.59839 64.9693 4.06623 71.4864 4.06623C76.4491 4.06623 78.9679 8.19714 81.6319 12.5729C83.5982 15.7936 85.78 19.3376 89.0807 20.234C87.9055 22.817 85.7097 26.4303 82.5823 26.4303C72.0061 26.4303 65.7278 15.3222 65.667 15.2113C64.9834 13.9775 63.415 13.9268 62.6331 14.9988C62.605 15.0404 59.9553 18.6537 56.2988 20.0722C55.6152 19.4669 54.5524 18.8108 53.0355 18.4966C53.2695 13.0765 54.5664 9.3246 56.912 7.35619Z" fill="#01457A"/>
<path fill-rule="evenodd" clip-rule="evenodd" d="M98.6558 59.5979C96.2821 55.2961 85.1486 47.2791 83.4444 46.4243C82.4332 45.9206 81.2018 46.3226 80.6915 47.3207C80.1811 48.3188 80.5837 49.5386 81.595 50.0422C83.2196 50.8601 93.3417 58.4288 95.0552 61.5385C96.1602 63.5532 97.7943 79.0279 98.8009 93.4121C95.5986 94.2715 87.8733 95.9119 81.7916 93.8649C84.8114 86.6936 87.2134 80.8669 88.632 72.9332C88.8287 71.8335 88.0841 70.7753 86.9698 70.5812C85.8368 70.3872 84.7927 71.1219 84.596 72.2263C83.2149 79.9428 80.7805 85.7279 78.2008 91.8549C76.5388 95.7964 74.8581 99.8025 73.4676 104.363C73.4629 104.377 73.4581 104.386 73.4581 104.395C71.5714 110.592 70.2277 117.819 70.2277 127.351C70.2277 128.469 71.1452 129.38 72.2782 129.38C73.4112 129.38 74.3243 128.469 74.3243 127.351C74.3243 123.992 74.5023 120.961 74.8066 118.16C75.5885 123.497 76.3561 127.457 76.4123 127.735C76.5995 128.705 77.4565 129.38 78.4163 129.38C78.5474 129.38 78.6784 129.366 78.8095 129.343C79.9191 129.13 80.6448 128.067 80.4294 126.968C80.406 126.852 78.2055 115.518 77.4704 105.25C78.2991 102.575 79.2448 100.07 80.2374 97.6076C82.9341 98.5549 85.8227 98.9199 88.5943 98.9199C95.3034 98.9199 101.245 96.9377 101.614 96.8129C102.49 96.5172 103.057 95.6716 102.996 94.7613C102.654 89.5769 100.814 63.5255 98.6558 59.5979Z" fill="#01457A"/>
<path fill-rule="evenodd" clip-rule="evenodd" d="M74.909 76.1492C74.909 73.0949 72.5634 70.0083 67.3151 70.0083C61.0742 70.0083 41.9491 79.0464 30.8064 84.5912C31.1107 83.6994 31.3775 82.8862 31.5788 82.2439C33.1846 81.9389 32.6228 81.2457 40.4929 66.9308C41.743 64.5789 38.4424 62.5413 37.197 64.8978L30.1463 78.21C21.8782 78.0713 15.1129 72.0599 12.7158 69.634C17.0652 61.0765 28.1892 42.6122 37.197 41.3276C42.6841 40.5467 45.8724 41.7204 45.9146 41.7388C46.8977 42.1131 47.9791 41.5726 48.3349 40.5191C48.6954 39.4563 48.1946 38.278 47.2068 37.8899C47.0476 37.8252 43.1991 36.342 36.6961 37.2707C23.3014 39.1791 9.28396 67.8412 8.69406 69.0611C8.32419 69.8189 8.43197 70.7476 8.97038 71.3806C9.32152 71.8011 16.9247 80.6914 27.6039 82.1053C27.0936 83.6394 26.3961 85.6169 25.6845 87.1695C24.3174 87.8672 23.3201 88.3848 22.8332 88.639C21.8922 89.1287 21.4943 90.3531 21.9531 91.3697C22.4072 92.3862 23.5354 92.816 24.4858 92.3216C34.2146 87.2574 60.8635 74.1021 67.3151 74.1021C69.0708 74.1021 71.1122 74.6382 71.1122 76.1492C71.1122 87.6455 24.631 107.246 17.9688 107.246C13.2636 107.246 8.4786 100.759 8.4786 97.1363C8.4786 93.1995 10.5527 86.7999 11.7934 82.9739C11.8027 82.7614 13.2215 80.0351 10.993 79.2034C8.77378 78.3809 8.3429 81.4214 8.20713 81.6247C6.89154 85.6909 4.68176 92.5018 4.68176 97.1363C4.68176 103.042 10.9086 110.883 17.435 111.299C16.9341 115.166 16.068 122.532 16.068 127.333C16.068 128.465 16.9201 129.38 17.9688 129.38C19.0175 129.38 19.8648 128.465 19.8648 127.333C19.8648 122.319 20.909 113.979 21.3445 110.726C34.5097 107.311 74.909 90.0251 74.909 76.1492Z" fill="#01457A"/>
<path fill-rule="evenodd" clip-rule="evenodd" d="M96.1219 116.386V103.651C96.1219 102.552 95.5694 101.655 94.8812 101.655C94.193 101.655 93.6359 102.552 93.6359 103.651V116.386C93.6359 121.196 95.8596 128.021 95.9579 128.307C96.721 130.632 98.9311 128.793 98.1539 126.441C97.5921 124.722 96.1219 119.565 96.1219 116.386Z" fill="#01457A"/>
<path fill-rule="evenodd" clip-rule="evenodd" d="M59.4309 68.9363C61.6548 67.4854 64.8199 67.0141 67.6898 67.7026C68.6964 67.9475 69.7827 67.5685 70.1245 66.8616C70.4662 66.1546 69.9325 65.3876 68.9306 65.1473C64.7216 64.1354 60.0911 64.8284 56.8325 66.9539C54.9411 68.1877 57.6003 70.1284 59.4309 68.9363Z" fill="#01457A"/>
<path fill-rule="evenodd" clip-rule="evenodd" d="M67.8161 92.9269C66.669 94.4194 64.5248 95.0479 62.6193 94.4518C61.9264 94.2346 61.1726 94.5627 60.9385 95.1818C60.695 95.7964 61.0649 96.4711 61.7532 96.6836C62.5163 96.9193 63.3075 97.0347 64.0847 97.0347C66.3975 97.0347 68.6355 96.032 69.9932 94.2623C70.4099 93.7217 70.2553 92.987 69.656 92.6174C69.0521 92.2524 68.2281 92.3909 67.8161 92.9269Z" fill="#01457A"/>
<path fill-rule="evenodd" clip-rule="evenodd" d="M74.408 97.7876C73.687 96.8542 72.4556 96.7757 71.6551 97.6213C66.8562 102.649 59.8382 103.106 54.5852 98.7349C53.7097 98.0094 52.4924 98.2451 51.8651 99.2662C51.2377 100.283 51.4391 101.701 52.3146 102.431C55.4092 105.005 58.9815 106.276 62.5303 106.276C66.7346 106.276 70.92 104.497 74.2629 100.994C75.0635 100.158 75.129 98.721 74.408 97.7876Z" fill="#01457A"/>
<path fill-rule="evenodd" clip-rule="evenodd" d="M60.8589 57.3937C60.784 56.2293 59.9785 55.3561 59.0889 55.4578C53.8687 56.0122 49.234 60.1616 46.9961 66.284C46.0644 68.8346 49.0373 70.6135 49.9596 68.0906C51.7013 63.3313 55.3016 60.1061 59.3607 59.6718C60.2596 59.5794 60.9291 58.5581 60.8589 57.3937Z" fill="#01457A"/>
</g>
</g>
<defs>
<clipPath id="clip0_1_73">
<rect width="103" height="134" fill="white"/>
</clipPath>
</defs>
</svg>
