<svg width="83" height="134" viewBox="0 0 83 134" fill="none" xmlns="http://www.w3.org/2000/svg">
<path fill-rule="evenodd" clip-rule="evenodd" d="M75.5188 81.8887C75.5211 81.895 75.5234 81.9014 75.5257 81.9069C75.9153 82.9442 76.743 83.5527 77.6207 83.5527C77.9342 83.5527 78.2547 83.4747 78.5629 83.3115C79.7372 82.6919 80.2444 81.1013 79.7195 79.6904C79.1954 78.2802 77.8627 77.6567 76.6869 78.2715C75.5103 78.8871 74.9977 80.4754 75.5188 81.8887Z" fill="#01457A"/>
<path fill-rule="evenodd" clip-rule="evenodd" d="M81.6612 89.4559C81.4699 88.0457 80.3294 87.0817 79.1151 87.3064C77.9016 87.5286 77.0732 88.8529 77.2653 90.2646C77.7641 93.9386 77.9016 97.6843 77.6719 101.395C77.1401 109.998 73.3973 117.849 67.4044 122.937L65.8989 124.214C62.9509 126.717 59.4633 128.039 55.8121 128.039C54.4902 128.039 53.1684 127.86 51.8834 127.507L45.9851 125.889C34.5841 122.761 24.1853 115.41 16.703 105.191C13.3776 100.647 11.8774 97.343 10.7254 93.9386C10.8176 93.5933 10.8507 93.2205 10.8069 92.8374C10.7954 92.7263 9.69948 81.5554 23.2569 74.384C32.556 69.4662 36.9058 61.055 38.419 57.4291C48.6126 59.0639 52.1217 62.3981 52.3822 62.6598C52.9202 63.3227 53.6634 63.5363 54.4319 63.3346C54.6171 63.2865 54.8 63.2392 54.9829 63.195C62.1147 61.4554 69.4718 65.8695 72.4782 73.6864C72.9801 74.991 74.2965 75.5751 75.4193 74.9926C76.5414 74.4093 77.044 72.8801 76.5437 71.5755C74.8399 67.1496 71.9756 63.4221 68.4104 60.9462C68.412 60.9375 68.415 60.9289 68.4181 60.9202C68.8669 59.2539 69.0937 57.5158 69.0937 55.7557C69.0937 55.4033 69.0814 55.0541 69.0637 54.7065H70.6084C71.8365 54.7065 72.834 53.5486 72.834 52.1203C72.834 50.6913 71.8365 49.5341 70.6084 49.5341H68.0923C67.5197 47.8181 66.7212 46.233 65.7337 44.8315L66.742 43.661C67.6112 42.6505 67.6112 41.0125 66.742 40.002C65.872 38.9931 64.4633 38.9931 63.5941 40.002L62.429 41.3562C60.6238 39.9642 58.5434 39.0175 56.304 38.6518C59.2528 35.9103 63.1269 34.612 67.8486 34.7989C68.4511 34.8257 69.0368 34.5608 69.4717 34.0737C69.9052 33.5866 70.1504 32.9158 70.1504 32.215V22.3621C70.1504 21.0166 69.2627 19.8965 68.1076 19.7853C67.7464 19.7507 63.5788 19.3818 58.1592 20.1393C55.736 14.691 52.3246 10.6434 48.4021 8.39692L49.9775 5.66411C50.6615 4.47703 50.3879 2.87061 49.3658 2.07606C48.3452 1.28152 46.9626 1.59839 46.2787 2.78547L44.023 6.69827C43.0616 6.49255 42.0818 6.38219 41.0896 6.38219C40.5171 6.38219 39.9476 6.41924 39.3835 6.48939V3.37429C39.3835 1.94601 38.3867 0.788086 37.1578 0.788086C35.9282 0.788086 34.9315 1.94601 34.9315 3.37429V7.79787C32.8434 8.78552 30.8652 10.2777 29.0584 12.2538C27.7066 13.7325 26.49 15.4414 25.4233 17.3379C24.5887 15.4248 22.8788 14.1085 20.9098 14.1085H14.8678C12.078 14.1085 9.80934 16.7451 9.80934 19.9863V46.4245C8.68884 47.4359 7.60909 48.6214 6.57621 49.9905C1.69688 56.4572 0.725479 64.9315 0.770053 70.9016C0.820775 77.6544 2.2256 84.5389 4.44585 88.953C4.78169 89.9974 5.08372 91.0048 5.37652 91.9822C6.87283 96.967 8.2854 101.676 13.3123 108.542C21.4048 119.596 32.6444 127.544 44.9622 130.923L50.8598 132.542C52.4806 132.986 54.1467 133.212 55.8121 133.212C60.414 133.212 64.8099 131.544 68.5242 128.392L70.0289 127.115C77.0824 121.127 81.4868 111.889 82.1123 101.766C82.3659 97.6622 82.2138 93.5208 81.6612 89.4559ZM54.4987 58.0337C53.6011 57.3077 52.0717 56.2743 49.6816 55.2378C49.8661 52.7486 50.4878 48.0578 52.5782 43.8044C53.1192 43.7051 53.6726 43.6523 54.2244 43.6523C59.9683 43.6523 64.6416 49.0833 64.6416 55.7572C64.6416 56.7843 64.5294 57.7988 64.3119 58.7825C61.1525 57.5915 57.7688 57.3243 54.4987 58.0337ZM65.6983 24.8561V29.6407C60.1842 29.9181 55.6346 32.0582 52.1516 36.0167C47.26 41.5785 45.7845 49.304 45.3418 53.6944C43.213 53.0772 40.6846 52.52 37.6928 52.1046C37.0157 51.3762 36.3417 50.6897 35.6708 50.041C35.6738 49.9779 35.6785 49.9164 35.6785 49.8526C35.6785 42.9059 37.6105 37.3133 41.4201 33.2303C48.6641 25.4662 60.8782 24.8009 65.6983 24.8561ZM41.0896 11.5554C42.2047 11.5554 43.3037 11.7461 44.3735 12.1087L44.3765 12.1095C47.924 13.3139 51.138 16.4424 53.4981 21.0402C48.3244 22.3361 42.7258 24.8001 38.4152 29.4136C34.3097 33.8049 31.9488 39.5117 31.3694 46.4088C29.548 45.0956 27.745 44.0859 25.9682 43.3859V28.4299C26.0066 28.3259 26.042 28.2202 26.0697 28.1091C28.5243 18.2081 34.5603 11.5554 41.0896 11.5554ZM14.2606 19.9863C14.2606 19.597 14.5327 19.2809 14.8678 19.2809H20.9098C21.2442 19.2809 21.5162 19.597 21.5162 19.9863V42.2729C20.7707 42.1965 20.0307 42.1767 19.2952 42.2146C17.5537 42.3052 15.8738 42.7191 14.2606 43.4482V19.9863ZM9.92389 53.4012C12.8012 49.5869 16.0205 47.5628 19.4935 47.3822C23.9217 47.1521 29.0169 49.9487 34.272 55.4814C32.9125 58.5799 29.1314 65.5936 21.4132 69.6759C12.8949 74.1815 9.25832 80.2934 7.70745 84.6272C7.68132 84.7005 7.6575 84.7722 7.63137 84.8447C4.81706 77.6024 3.30464 62.1735 9.92389 53.4012Z" fill="#01457A"/>
<path fill-rule="evenodd" clip-rule="evenodd" d="M28.9224 104.637C27.9986 103.733 26.6284 103.885 25.8614 104.973C25.0959 106.062 25.2227 107.677 26.1465 108.579C32.0272 114.328 39.0691 118.46 46.5115 120.531C46.6798 120.578 46.8473 120.6 47.0133 120.6C47.9978 120.6 48.8908 119.805 49.1267 118.627C49.4026 117.251 48.6787 115.871 47.5105 115.546C40.7168 113.656 34.2897 109.882 28.9224 104.637Z" fill="#01457A"/>
<path fill-rule="evenodd" clip-rule="evenodd" d="M20.0076 97.6205C19.05 98.6129 18.9417 100.338 19.7701 101.483C20.2243 102.135 20.876 102.471 21.5331 102.471C22.0511 102.471 22.5714 102.262 22.9995 101.834C23.9716 100.865 24.1031 99.1339 23.293 97.9697L23.2461 97.9043C22.4169 96.7582 20.9636 96.6273 20.0076 97.6205Z" fill="#01457A"/>
</svg>
