<svg width="126" height="106" viewBox="0 0 126 106" fill="none" xmlns="http://www.w3.org/2000/svg">
<path d="M56.2612 74.3237V96.4593H51.3864C50.2004 96.4593 49.1467 95.4051 49.1467 94.3513V76.5638C49.1467 75.3778 50.2009 74.3241 51.3864 74.3241L56.2612 74.3237Z" fill="#01457A"/>
<path d="M121.087 5.28143L120.691 8.83872L98.6876 6.20353L99.0831 2.64625C99.2148 0.933154 100.796 -0.120592 102.377 0.0110575L118.583 1.98745C120.164 2.25079 121.35 3.70054 121.087 5.28143H121.087Z" fill="#01457A"/>
<path d="M125.171 18.589L117.003 87.3674C115.948 95.8001 108.965 101.993 100.533 101.993L65.3529 101.993C63.3765 101.993 61.7956 100.412 61.7956 98.4358V72.4792C61.7956 70.5028 63.3765 68.9219 65.3529 68.9219H80.1099L79.3195 75.9054C79.1878 77.4863 80.2416 78.8039 81.823 79.0677H82.2185C83.6677 79.0677 84.722 78.0135 84.9853 76.5642L92.3637 14.769C92.6271 12.7926 94.3401 11.4751 96.3165 11.6067L122.273 14.6374C123.986 14.7686 125.435 16.6133 125.172 18.5897L125.171 18.589Z" fill="#01457A"/>
<path d="M4.61158 80.7798C7.24677 80.7798 9.22316 82.8878 9.22316 85.3914C9.22316 88.0266 7.11512 90.0029 4.61158 90.0029C1.97639 90.0029 0 87.8949 0 85.3914C0 82.8878 2.10804 80.7798 4.61158 80.7798Z" fill="#01457A"/>
<path d="M18.7099 81.8335C20.8179 81.8335 22.3993 83.5466 22.3993 85.523C22.3993 87.631 20.6863 89.2125 18.7099 89.2125C16.6018 89.2125 15.0204 87.4994 15.0204 85.523C14.8891 83.4149 16.6017 81.8335 18.7099 81.8335Z" fill="#01457A"/>
<path d="M33.5987 85.5232C33.5987 87.0514 32.36 88.29 30.8318 88.29C29.3037 88.29 28.065 87.0514 28.065 85.5232C28.065 83.995 29.3037 82.7563 30.8318 82.7563C32.36 82.7563 33.5987 83.995 33.5987 85.5232Z" fill="#01457A"/>
<path d="M41.109 83.6782C42.1632 83.6782 42.9537 84.4687 42.9537 85.523C42.9537 86.5772 42.1632 87.3677 41.109 87.3677C40.0547 87.3677 39.2642 86.5772 39.2642 85.523C39.2647 84.4687 40.0551 83.6782 41.109 83.6782Z" fill="#01457A"/>
<path d="M5.40201 74.8505C2.89848 74.1917 1.44923 71.6881 2.10803 69.1846C2.76683 66.6811 5.27037 65.2318 7.7739 65.8906C10.2774 66.5494 11.7267 69.1846 11.0679 71.5565C10.5408 74.0596 7.90555 75.5093 5.40201 74.8505Z" fill="#01457A"/>
<path d="M19.2368 77.6176C17.2604 77.0905 16.0745 74.9824 16.6016 73.006C17.1288 71.0297 19.2368 69.8437 21.2132 70.3709C23.1896 70.898 24.3755 73.006 23.8484 74.9824C23.3212 76.9588 21.2132 78.1448 19.2368 77.6176Z" fill="#01457A"/>
<path d="M31.227 79.8572C29.7778 79.4617 28.8551 77.8808 29.2506 76.4315C29.6461 74.9823 31.227 74.0597 32.6763 74.4552C34.1255 74.8506 35.0481 76.4315 34.6526 77.8808C34.2576 79.33 32.6767 80.2527 31.227 79.8572Z" fill="#01457A"/>
<path d="M41.3725 81.5702C40.3182 81.3068 39.7916 80.2526 40.0549 79.3305C40.3182 78.2762 41.3725 77.7496 42.2946 78.0129C43.3488 78.2762 43.8755 79.3305 43.6122 80.2526C43.3488 81.3064 42.2946 81.8335 41.3725 81.5702Z" fill="#01457A"/>
<path d="M5.40201 96.0635C7.90555 95.4047 10.4091 96.8539 11.0679 99.3575C11.7267 101.861 10.2774 104.365 7.7739 105.023C5.27039 105.682 2.76683 104.233 2.10803 101.729C1.44923 99.3575 2.8985 96.854 5.40201 96.0635Z" fill="#01457A"/>
<path d="M19.2368 93.4285C21.2132 92.9013 23.3212 94.0873 23.8484 96.0637C24.3755 98.04 23.1896 100.148 21.2132 100.675C19.2368 101.202 17.1288 100.016 16.6016 98.04C16.0745 95.932 17.2604 93.9556 19.2368 93.4285Z" fill="#01457A"/>
<path d="M31.227 91.1885C32.6762 90.7931 34.2577 91.7157 34.6526 93.1649C35.0481 94.6142 34.1255 96.1956 32.6762 96.5906C31.227 96.986 29.6455 96.0634 29.2506 94.6142C28.8556 93.0333 29.646 91.5839 31.227 91.1885Z" fill="#01457A"/>
<path d="M41.3725 89.344C42.4267 89.0806 43.3489 89.6073 43.6122 90.6616C43.8755 91.7158 43.3488 92.6379 42.2946 92.9012C41.2403 93.1646 40.3182 92.6379 40.0549 91.5837C39.7911 90.6615 40.3182 89.6073 41.3725 89.344Z" fill="#01457A"/>
</svg>
