<svg width="41" height="39" viewBox="0 0 41 39" fill="none" xmlns="http://www.w3.org/2000/svg">
<path d="M33.7402 38.3442H7.35822C3.76068 38.3442 0.848389 35.4319 0.848389 31.8344C0.848389 29.6073 3.50372 28.2368 4.36027 27.8086L15.0672 23.0975C15.9238 22.9262 16.2664 22.6692 16.2664 21.47C15.3242 20.3565 11.5554 15.6454 11.5554 11.6196C11.5554 5.45241 15.6668 0.484375 20.8062 0.484375C25.9455 0.484375 30.057 5.45241 30.057 11.534C30.057 15.5598 26.1168 20.3565 25.1746 21.47C25.089 22.7549 25.3459 22.9262 26.1168 23.1831L36.6525 26.8663C38.4513 27.5516 40.1644 29.9499 40.1644 31.7487C40.25 35.4319 37.3377 38.3442 33.7402 38.3442ZM15.5812 24.8106L5.04552 29.436C3.84634 30.0356 2.5615 30.9778 2.5615 31.92C2.5615 34.5754 4.7029 36.7168 7.35822 36.7168H33.7402C36.3955 36.7168 38.5369 34.5754 38.5369 31.92C38.5369 30.8065 37.2521 29.0934 36.1386 28.6651L25.6886 24.8963C23.7185 24.211 23.3758 22.9262 23.5472 21.1274V20.8704L23.7185 20.6991C23.8041 20.6135 28.3439 15.4741 28.3439 11.7053C28.3439 6.65159 24.9177 2.3688 20.8062 2.3688C16.6947 2.3688 13.2685 6.65159 13.2685 11.7909C13.2685 15.5598 17.7226 20.6991 17.7226 20.6991L17.8939 20.9561V21.2131C18.0652 23.2688 17.3799 24.2967 15.5812 24.8106Z" fill="#01457A"/>
</svg>
