<svg width="45" height="46" viewBox="0 0 45 46" fill="none" xmlns="http://www.w3.org/2000/svg">
<path d="M38.0043 38.5043C46.6842 29.824 46.6842 15.7008 38.0043 7.02056C33.7997 2.81593 28.2089 0.5 22.2622 0.5C16.3155 0.5 10.7251 2.81589 6.52012 7.02012C2.31567 11.2248 0 16.8155 0 22.7622C0 28.7089 2.31589 34.2994 6.52012 38.5043C10.7248 42.709 16.3155 45.0244 22.2622 45.0244C28.2089 45.0244 33.7994 42.7086 38.0043 38.5043ZM7.64138 37.3834C3.73644 33.4779 1.58544 28.2856 1.58544 22.7625C1.58544 17.2395 3.73635 12.0472 7.64138 8.14169C11.5463 4.23622 16.7392 2.08575 22.2622 2.08575C27.7853 2.08575 32.9776 4.23666 36.8831 8.14169C44.9446 16.2037 44.9446 29.3219 36.8831 37.3834C32.9776 41.2888 27.7853 43.4393 22.2622 43.4393C16.7392 43.4393 11.5469 41.2889 7.64138 37.3834Z" fill="#01457A"/>
<path d="M20.7875 25.3586L33.1478 12.9983V18.0911C33.1478 18.5293 33.5028 18.8839 33.9405 18.8839C34.3781 18.8839 34.7332 18.5293 34.7332 18.0911V11.0844C34.7332 10.9818 34.712 10.8852 34.6771 10.7954C34.6756 10.7916 34.6751 10.7874 34.6733 10.7831C34.593 10.5881 34.4371 10.4322 34.2421 10.3519C34.2378 10.3503 34.2336 10.3498 34.2298 10.3481C34.14 10.3126 34.0428 10.292 33.9408 10.292L26.9336 10.2922C26.496 10.2922 26.1409 10.6467 26.1409 11.0849C26.1409 11.523 26.496 11.8776 26.9336 11.8776H32.0264L19.0659 24.8373L20.2338 30.6765L13.5274 37.3834C13.2178 37.693 13.2178 38.1947 13.5274 38.5043C13.6822 38.6592 13.8852 38.7364 14.088 38.7364C14.291 38.7364 14.4939 38.6592 14.6487 38.5043L21.9553 31.1976L20.7875 25.3586Z" fill="#01457A"/>
</svg>
